<mxfile host="Electron" agent="Mozilla/5.0 (Windows NT 10.0; Win64; x64) AppleWebKit/537.36 (KHTML, like Gecko) draw.io/26.2.15 Chrome/134.0.6998.205 Electron/35.2.1 Safari/537.36" version="26.2.15" pages="2">
  <diagram name="Page-1" id="ivtRtcxIQhKYIFyVYrGN">
    <mxGraphModel dx="969" dy="597" grid="1" gridSize="10" guides="1" tooltips="1" connect="1" arrows="1" fold="1" page="1" pageScale="1" pageWidth="850" pageHeight="1100" math="0" shadow="0">
      <root>
        <mxCell id="0" />
        <mxCell id="1" parent="0" />
        <mxCell id="nd7BNRBDZUB_FumJnGTG-97" value="" style="group" vertex="1" connectable="0" parent="1">
          <mxGeometry x="30" y="10" width="750" height="980" as="geometry" />
        </mxCell>
        <mxCell id="nd7BNRBDZUB_FumJnGTG-51" value="Are Valid?" style="rhombus;whiteSpace=wrap;html=1;strokeWidth=2;rounded=1;arcSize=12;" vertex="1" parent="nd7BNRBDZUB_FumJnGTG-97">
          <mxGeometry x="330" y="390" width="80" height="80" as="geometry" />
        </mxCell>
        <mxCell id="nd7BNRBDZUB_FumJnGTG-54" value="" style="edgeStyle=orthogonalEdgeStyle;rounded=0;orthogonalLoop=1;jettySize=auto;html=1;" edge="1" parent="nd7BNRBDZUB_FumJnGTG-97" source="nd7BNRBDZUB_FumJnGTG-13" target="nd7BNRBDZUB_FumJnGTG-51">
          <mxGeometry relative="1" as="geometry" />
        </mxCell>
        <mxCell id="nd7BNRBDZUB_FumJnGTG-57" style="edgeStyle=orthogonalEdgeStyle;rounded=0;orthogonalLoop=1;jettySize=auto;html=1;entryX=0.4;entryY=1;entryDx=0;entryDy=0;entryPerimeter=0;" edge="1" parent="nd7BNRBDZUB_FumJnGTG-97" source="nd7BNRBDZUB_FumJnGTG-51" target="nd7BNRBDZUB_FumJnGTG-56">
          <mxGeometry relative="1" as="geometry">
            <Array as="points">
              <mxPoint x="200" y="430" />
            </Array>
          </mxGeometry>
        </mxCell>
        <mxCell id="nd7BNRBDZUB_FumJnGTG-58" value="No" style="edgeLabel;html=1;align=center;verticalAlign=middle;resizable=0;points=[];" vertex="1" connectable="0" parent="nd7BNRBDZUB_FumJnGTG-57">
          <mxGeometry x="-0.3579" relative="1" as="geometry">
            <mxPoint as="offset" />
          </mxGeometry>
        </mxCell>
        <mxCell id="nd7BNRBDZUB_FumJnGTG-24" style="edgeStyle=orthogonalEdgeStyle;rounded=0;orthogonalLoop=1;jettySize=auto;html=1;" edge="1" parent="nd7BNRBDZUB_FumJnGTG-97">
          <mxGeometry relative="1" as="geometry">
            <mxPoint x="270" y="200" as="targetPoint" />
            <mxPoint x="60" y="170" as="sourcePoint" />
            <Array as="points">
              <mxPoint x="60" y="70" />
              <mxPoint x="270" y="70" />
            </Array>
          </mxGeometry>
        </mxCell>
        <mxCell id="nd7BNRBDZUB_FumJnGTG-33" value="No" style="edgeLabel;html=1;align=center;verticalAlign=middle;resizable=0;points=[];" vertex="1" connectable="0" parent="nd7BNRBDZUB_FumJnGTG-24">
          <mxGeometry x="-0.6868" y="-3" relative="1" as="geometry">
            <mxPoint y="1" as="offset" />
          </mxGeometry>
        </mxCell>
        <mxCell id="nd7BNRBDZUB_FumJnGTG-61" value="" style="edgeStyle=orthogonalEdgeStyle;rounded=0;orthogonalLoop=1;jettySize=auto;html=1;" edge="1" parent="nd7BNRBDZUB_FumJnGTG-97" source="nd7BNRBDZUB_FumJnGTG-19" target="nd7BNRBDZUB_FumJnGTG-60">
          <mxGeometry relative="1" as="geometry" />
        </mxCell>
        <mxCell id="nd7BNRBDZUB_FumJnGTG-71" value="Yes" style="edgeLabel;html=1;align=center;verticalAlign=middle;resizable=0;points=[];" vertex="1" connectable="0" parent="nd7BNRBDZUB_FumJnGTG-61">
          <mxGeometry x="0.04" y="-1" relative="1" as="geometry">
            <mxPoint as="offset" />
          </mxGeometry>
        </mxCell>
        <mxCell id="nd7BNRBDZUB_FumJnGTG-19" value="Are Valid?" style="rhombus;whiteSpace=wrap;html=1;strokeWidth=2;rounded=1;arcSize=12;" vertex="1" parent="nd7BNRBDZUB_FumJnGTG-97">
          <mxGeometry x="20" y="160" width="80" height="80" as="geometry" />
        </mxCell>
        <mxCell id="nd7BNRBDZUB_FumJnGTG-20" value="" style="edgeStyle=orthogonalEdgeStyle;rounded=0;orthogonalLoop=1;jettySize=auto;html=1;" edge="1" parent="nd7BNRBDZUB_FumJnGTG-97" source="nd7BNRBDZUB_FumJnGTG-7" target="nd7BNRBDZUB_FumJnGTG-19">
          <mxGeometry relative="1" as="geometry" />
        </mxCell>
        <mxCell id="nd7BNRBDZUB_FumJnGTG-32" value="" style="edgeStyle=orthogonalEdgeStyle;rounded=0;orthogonalLoop=1;jettySize=auto;html=1;" edge="1" parent="nd7BNRBDZUB_FumJnGTG-97" source="nd7BNRBDZUB_FumJnGTG-2" target="nd7BNRBDZUB_FumJnGTG-3">
          <mxGeometry relative="1" as="geometry" />
        </mxCell>
        <mxCell id="nd7BNRBDZUB_FumJnGTG-2" value="&lt;font style=&quot;font-size: 11px;&quot;&gt;Choose User Role&lt;/font&gt;&lt;div&gt;&lt;font style=&quot;font-size: 11px;&quot;&gt;(HR, Head, Employee)&lt;/font&gt;&lt;/div&gt;" style="shape=parallelogram;html=1;strokeWidth=2;perimeter=parallelogramPerimeter;whiteSpace=wrap;rounded=1;arcSize=12;size=0.23;" vertex="1" parent="nd7BNRBDZUB_FumJnGTG-97">
          <mxGeometry x="275" y="60" width="190" height="50" as="geometry" />
        </mxCell>
        <mxCell id="nd7BNRBDZUB_FumJnGTG-8" value="" style="edgeStyle=orthogonalEdgeStyle;rounded=0;orthogonalLoop=1;jettySize=auto;html=1;" edge="1" parent="nd7BNRBDZUB_FumJnGTG-97" source="nd7BNRBDZUB_FumJnGTG-3" target="nd7BNRBDZUB_FumJnGTG-7">
          <mxGeometry relative="1" as="geometry" />
        </mxCell>
        <mxCell id="nd7BNRBDZUB_FumJnGTG-11" style="edgeStyle=orthogonalEdgeStyle;rounded=0;orthogonalLoop=1;jettySize=auto;html=1;exitX=1;exitY=0.5;exitDx=0;exitDy=0;entryX=0;entryY=0.5;entryDx=0;entryDy=0;" edge="1" parent="nd7BNRBDZUB_FumJnGTG-97" source="nd7BNRBDZUB_FumJnGTG-3" target="nd7BNRBDZUB_FumJnGTG-10">
          <mxGeometry relative="1" as="geometry" />
        </mxCell>
        <mxCell id="nd7BNRBDZUB_FumJnGTG-14" value="" style="edgeStyle=orthogonalEdgeStyle;rounded=0;orthogonalLoop=1;jettySize=auto;html=1;" edge="1" parent="nd7BNRBDZUB_FumJnGTG-97" source="nd7BNRBDZUB_FumJnGTG-3" target="nd7BNRBDZUB_FumJnGTG-13">
          <mxGeometry relative="1" as="geometry" />
        </mxCell>
        <mxCell id="nd7BNRBDZUB_FumJnGTG-3" value="Which Role?" style="rhombus;whiteSpace=wrap;html=1;strokeWidth=2;rounded=1;arcSize=12;" vertex="1" parent="nd7BNRBDZUB_FumJnGTG-97">
          <mxGeometry x="325" y="160" width="90" height="80" as="geometry" />
        </mxCell>
        <mxCell id="nd7BNRBDZUB_FumJnGTG-7" value="&lt;font style=&quot;font-size: 11px;&quot;&gt;Enter Credentials&lt;/font&gt;&lt;div&gt;&lt;font style=&quot;font-size: 11px;&quot;&gt;（UserName, Password）&lt;/font&gt;&lt;/div&gt;" style="shape=parallelogram;perimeter=parallelogramPerimeter;whiteSpace=wrap;html=1;fixedSize=1;strokeWidth=2;rounded=1;arcSize=12;" vertex="1" parent="nd7BNRBDZUB_FumJnGTG-97">
          <mxGeometry x="130" y="170" width="120" height="60" as="geometry" />
        </mxCell>
        <mxCell id="nd7BNRBDZUB_FumJnGTG-9" value="HR" style="text;html=1;align=center;verticalAlign=middle;resizable=0;points=[];autosize=1;strokeColor=none;fillColor=none;" vertex="1" parent="nd7BNRBDZUB_FumJnGTG-97">
          <mxGeometry x="280" y="178" width="40" height="30" as="geometry" />
        </mxCell>
        <mxCell id="nd7BNRBDZUB_FumJnGTG-45" value="" style="edgeStyle=orthogonalEdgeStyle;rounded=0;orthogonalLoop=1;jettySize=auto;html=1;" edge="1" parent="nd7BNRBDZUB_FumJnGTG-97" source="nd7BNRBDZUB_FumJnGTG-10" target="nd7BNRBDZUB_FumJnGTG-44">
          <mxGeometry relative="1" as="geometry" />
        </mxCell>
        <mxCell id="nd7BNRBDZUB_FumJnGTG-10" value="&lt;font style=&quot;font-size: 11px;&quot;&gt;Enter Credentials&lt;/font&gt;&lt;div&gt;&lt;font style=&quot;font-size: 11px;&quot;&gt;（UserName, Password）&lt;/font&gt;&lt;/div&gt;" style="shape=parallelogram;html=1;strokeWidth=2;perimeter=parallelogramPerimeter;whiteSpace=wrap;rounded=1;arcSize=12;size=0.23;" vertex="1" parent="nd7BNRBDZUB_FumJnGTG-97">
          <mxGeometry x="480" y="170" width="130" height="60" as="geometry" />
        </mxCell>
        <mxCell id="nd7BNRBDZUB_FumJnGTG-12" value="Employee" style="text;html=1;align=center;verticalAlign=middle;resizable=0;points=[];autosize=1;strokeColor=none;fillColor=none;" vertex="1" parent="nd7BNRBDZUB_FumJnGTG-97">
          <mxGeometry x="410" y="178" width="80" height="30" as="geometry" />
        </mxCell>
        <mxCell id="nd7BNRBDZUB_FumJnGTG-13" value="&lt;font style=&quot;font-size: 11px;&quot;&gt;Enter Credentials&lt;/font&gt;&lt;div&gt;&lt;font style=&quot;font-size: 11px;&quot;&gt;（UserName, Password）&lt;/font&gt;&lt;/div&gt;" style="shape=parallelogram;html=1;strokeWidth=2;perimeter=parallelogramPerimeter;whiteSpace=wrap;rounded=1;arcSize=12;size=0.23;" vertex="1" parent="nd7BNRBDZUB_FumJnGTG-97">
          <mxGeometry x="305" y="290" width="130" height="60" as="geometry" />
        </mxCell>
        <mxCell id="nd7BNRBDZUB_FumJnGTG-42" style="edgeStyle=orthogonalEdgeStyle;rounded=0;orthogonalLoop=1;jettySize=auto;html=1;entryX=0.95;entryY=0.633;entryDx=0;entryDy=0;entryPerimeter=0;" edge="1" parent="nd7BNRBDZUB_FumJnGTG-97" target="nd7BNRBDZUB_FumJnGTG-12">
          <mxGeometry relative="1" as="geometry">
            <mxPoint x="480" y="120" as="targetPoint" />
            <mxPoint x="690" y="160" as="sourcePoint" />
            <Array as="points">
              <mxPoint x="690" y="70" />
              <mxPoint x="486" y="70" />
            </Array>
          </mxGeometry>
        </mxCell>
        <mxCell id="nd7BNRBDZUB_FumJnGTG-43" value="No" style="edgeLabel;html=1;align=center;verticalAlign=middle;resizable=0;points=[];" vertex="1" connectable="0" parent="nd7BNRBDZUB_FumJnGTG-42">
          <mxGeometry x="-0.6868" y="-3" relative="1" as="geometry">
            <mxPoint y="1" as="offset" />
          </mxGeometry>
        </mxCell>
        <mxCell id="nd7BNRBDZUB_FumJnGTG-44" value="Are Valid?" style="rhombus;whiteSpace=wrap;html=1;strokeWidth=2;rounded=1;arcSize=12;" vertex="1" parent="nd7BNRBDZUB_FumJnGTG-97">
          <mxGeometry x="650" y="160" width="80" height="80" as="geometry" />
        </mxCell>
        <mxCell id="nd7BNRBDZUB_FumJnGTG-46" value="Display Error Message" style="shape=parallelogram;html=1;strokeWidth=2;perimeter=parallelogramPerimeter;whiteSpace=wrap;rounded=1;arcSize=12;size=0.23;" vertex="1" parent="nd7BNRBDZUB_FumJnGTG-97">
          <mxGeometry x="540" y="40" width="100" height="60" as="geometry" />
        </mxCell>
        <mxCell id="nd7BNRBDZUB_FumJnGTG-47" value="Display Error Message" style="shape=parallelogram;html=1;strokeWidth=2;perimeter=parallelogramPerimeter;whiteSpace=wrap;rounded=1;arcSize=12;size=0.23;" vertex="1" parent="nd7BNRBDZUB_FumJnGTG-97">
          <mxGeometry x="100" y="40" width="100" height="60" as="geometry" />
        </mxCell>
        <mxCell id="nd7BNRBDZUB_FumJnGTG-53" value="" style="edgeStyle=orthogonalEdgeStyle;rounded=0;orthogonalLoop=1;jettySize=auto;html=1;" edge="1" parent="nd7BNRBDZUB_FumJnGTG-97" source="nd7BNRBDZUB_FumJnGTG-52" target="nd7BNRBDZUB_FumJnGTG-2">
          <mxGeometry relative="1" as="geometry" />
        </mxCell>
        <mxCell id="nd7BNRBDZUB_FumJnGTG-52" value="Start" style="strokeWidth=2;html=1;shape=mxgraph.flowchart.start_1;whiteSpace=wrap;" vertex="1" parent="nd7BNRBDZUB_FumJnGTG-97">
          <mxGeometry x="320" width="100" height="30" as="geometry" />
        </mxCell>
        <mxCell id="nd7BNRBDZUB_FumJnGTG-59" style="edgeStyle=orthogonalEdgeStyle;rounded=0;orthogonalLoop=1;jettySize=auto;html=1;" edge="1" parent="nd7BNRBDZUB_FumJnGTG-97" source="nd7BNRBDZUB_FumJnGTG-56">
          <mxGeometry relative="1" as="geometry">
            <mxPoint x="370" y="260" as="targetPoint" />
            <Array as="points">
              <mxPoint x="210" y="260" />
            </Array>
          </mxGeometry>
        </mxCell>
        <mxCell id="nd7BNRBDZUB_FumJnGTG-56" value="Display Error Message" style="shape=parallelogram;html=1;strokeWidth=2;perimeter=parallelogramPerimeter;whiteSpace=wrap;rounded=1;arcSize=12;size=0.23;" vertex="1" parent="nd7BNRBDZUB_FumJnGTG-97">
          <mxGeometry x="160" y="310" width="100" height="60" as="geometry" />
        </mxCell>
        <mxCell id="nd7BNRBDZUB_FumJnGTG-80" value="" style="edgeStyle=orthogonalEdgeStyle;rounded=0;orthogonalLoop=1;jettySize=auto;html=1;" edge="1" parent="nd7BNRBDZUB_FumJnGTG-97" source="nd7BNRBDZUB_FumJnGTG-60" target="nd7BNRBDZUB_FumJnGTG-76">
          <mxGeometry relative="1" as="geometry" />
        </mxCell>
        <mxCell id="nd7BNRBDZUB_FumJnGTG-60" value="Display&amp;nbsp; Dashboard&lt;div&gt;&amp;nbsp;for HR&lt;/div&gt;" style="shape=parallelogram;html=1;strokeWidth=2;perimeter=parallelogramPerimeter;whiteSpace=wrap;rounded=1;arcSize=12;size=0.23;" vertex="1" parent="nd7BNRBDZUB_FumJnGTG-97">
          <mxGeometry x="10" y="340" width="100" height="60" as="geometry" />
        </mxCell>
        <mxCell id="nd7BNRBDZUB_FumJnGTG-64" value="" style="edgeStyle=orthogonalEdgeStyle;rounded=0;orthogonalLoop=1;jettySize=auto;html=1;" edge="1" parent="nd7BNRBDZUB_FumJnGTG-97" target="nd7BNRBDZUB_FumJnGTG-65">
          <mxGeometry relative="1" as="geometry">
            <mxPoint x="690" y="240" as="sourcePoint" />
          </mxGeometry>
        </mxCell>
        <mxCell id="nd7BNRBDZUB_FumJnGTG-72" value="Yes" style="edgeLabel;html=1;align=center;verticalAlign=middle;resizable=0;points=[];" vertex="1" connectable="0" parent="nd7BNRBDZUB_FumJnGTG-64">
          <mxGeometry x="-0.4631" y="-2" relative="1" as="geometry">
            <mxPoint as="offset" />
          </mxGeometry>
        </mxCell>
        <mxCell id="nd7BNRBDZUB_FumJnGTG-65" value="Display Dashboard&lt;div&gt;&amp;nbsp;for Heads&lt;/div&gt;" style="shape=parallelogram;html=1;strokeWidth=2;perimeter=parallelogramPerimeter;whiteSpace=wrap;rounded=1;arcSize=12;size=0.23;" vertex="1" parent="nd7BNRBDZUB_FumJnGTG-97">
          <mxGeometry x="640" y="340" width="100" height="60" as="geometry" />
        </mxCell>
        <mxCell id="nd7BNRBDZUB_FumJnGTG-73" value="" style="edgeStyle=orthogonalEdgeStyle;rounded=0;orthogonalLoop=1;jettySize=auto;html=1;" edge="1" parent="nd7BNRBDZUB_FumJnGTG-97" target="nd7BNRBDZUB_FumJnGTG-75">
          <mxGeometry relative="1" as="geometry">
            <mxPoint x="370" y="470" as="sourcePoint" />
          </mxGeometry>
        </mxCell>
        <mxCell id="nd7BNRBDZUB_FumJnGTG-74" value="Yes" style="edgeLabel;html=1;align=center;verticalAlign=middle;resizable=0;points=[];" vertex="1" connectable="0" parent="nd7BNRBDZUB_FumJnGTG-73">
          <mxGeometry x="-0.4631" y="-2" relative="1" as="geometry">
            <mxPoint as="offset" />
          </mxGeometry>
        </mxCell>
        <mxCell id="nd7BNRBDZUB_FumJnGTG-75" value="Display Dashboard&lt;div&gt;&amp;nbsp;for Employee&lt;/div&gt;" style="shape=parallelogram;html=1;strokeWidth=2;perimeter=parallelogramPerimeter;whiteSpace=wrap;rounded=1;arcSize=12;size=0.23;" vertex="1" parent="nd7BNRBDZUB_FumJnGTG-97">
          <mxGeometry x="290" y="570" width="160" height="60" as="geometry" />
        </mxCell>
        <mxCell id="nd7BNRBDZUB_FumJnGTG-78" value="" style="edgeStyle=orthogonalEdgeStyle;rounded=0;orthogonalLoop=1;jettySize=auto;html=1;" edge="1" parent="nd7BNRBDZUB_FumJnGTG-97" source="nd7BNRBDZUB_FumJnGTG-76" target="nd7BNRBDZUB_FumJnGTG-77">
          <mxGeometry relative="1" as="geometry" />
        </mxCell>
        <mxCell id="nd7BNRBDZUB_FumJnGTG-76" value="Choose Actions" style="shape=parallelogram;html=1;strokeWidth=2;perimeter=parallelogramPerimeter;whiteSpace=wrap;rounded=1;arcSize=12;size=0.23;" vertex="1" parent="nd7BNRBDZUB_FumJnGTG-97">
          <mxGeometry y="470" width="120" height="70" as="geometry" />
        </mxCell>
        <mxCell id="nd7BNRBDZUB_FumJnGTG-82" value="" style="edgeStyle=orthogonalEdgeStyle;rounded=0;orthogonalLoop=1;jettySize=auto;html=1;" edge="1" parent="nd7BNRBDZUB_FumJnGTG-97" source="nd7BNRBDZUB_FumJnGTG-77" target="nd7BNRBDZUB_FumJnGTG-81">
          <mxGeometry relative="1" as="geometry" />
        </mxCell>
        <mxCell id="nd7BNRBDZUB_FumJnGTG-77" value="Clicked Logout?" style="strokeWidth=2;html=1;shape=mxgraph.flowchart.decision;whiteSpace=wrap;" vertex="1" parent="nd7BNRBDZUB_FumJnGTG-97">
          <mxGeometry x="10" y="580" width="100" height="80" as="geometry" />
        </mxCell>
        <mxCell id="nd7BNRBDZUB_FumJnGTG-81" value="End" style="strokeWidth=2;html=1;shape=mxgraph.flowchart.terminator;whiteSpace=wrap;" vertex="1" parent="nd7BNRBDZUB_FumJnGTG-97">
          <mxGeometry x="10" y="710" width="100" height="40" as="geometry" />
        </mxCell>
        <mxCell id="nd7BNRBDZUB_FumJnGTG-85" value="" style="edgeStyle=orthogonalEdgeStyle;rounded=0;orthogonalLoop=1;jettySize=auto;html=1;" edge="1" parent="nd7BNRBDZUB_FumJnGTG-97" target="nd7BNRBDZUB_FumJnGTG-87">
          <mxGeometry relative="1" as="geometry">
            <mxPoint x="690" y="400" as="sourcePoint" />
          </mxGeometry>
        </mxCell>
        <mxCell id="nd7BNRBDZUB_FumJnGTG-86" value="" style="edgeStyle=orthogonalEdgeStyle;rounded=0;orthogonalLoop=1;jettySize=auto;html=1;" edge="1" parent="nd7BNRBDZUB_FumJnGTG-97" source="nd7BNRBDZUB_FumJnGTG-87" target="nd7BNRBDZUB_FumJnGTG-89">
          <mxGeometry relative="1" as="geometry" />
        </mxCell>
        <mxCell id="nd7BNRBDZUB_FumJnGTG-87" value="Choose Actions" style="shape=parallelogram;html=1;strokeWidth=2;perimeter=parallelogramPerimeter;whiteSpace=wrap;rounded=1;arcSize=12;size=0.23;" vertex="1" parent="nd7BNRBDZUB_FumJnGTG-97">
          <mxGeometry x="630" y="470" width="120" height="70" as="geometry" />
        </mxCell>
        <mxCell id="nd7BNRBDZUB_FumJnGTG-88" value="" style="edgeStyle=orthogonalEdgeStyle;rounded=0;orthogonalLoop=1;jettySize=auto;html=1;" edge="1" parent="nd7BNRBDZUB_FumJnGTG-97" source="nd7BNRBDZUB_FumJnGTG-89" target="nd7BNRBDZUB_FumJnGTG-90">
          <mxGeometry relative="1" as="geometry" />
        </mxCell>
        <mxCell id="nd7BNRBDZUB_FumJnGTG-89" value="Clicked Logout?" style="strokeWidth=2;html=1;shape=mxgraph.flowchart.decision;whiteSpace=wrap;" vertex="1" parent="nd7BNRBDZUB_FumJnGTG-97">
          <mxGeometry x="640" y="580" width="100" height="80" as="geometry" />
        </mxCell>
        <mxCell id="nd7BNRBDZUB_FumJnGTG-90" value="End" style="strokeWidth=2;html=1;shape=mxgraph.flowchart.terminator;whiteSpace=wrap;" vertex="1" parent="nd7BNRBDZUB_FumJnGTG-97">
          <mxGeometry x="640" y="710" width="100" height="40" as="geometry" />
        </mxCell>
        <mxCell id="nd7BNRBDZUB_FumJnGTG-91" value="" style="edgeStyle=orthogonalEdgeStyle;rounded=0;orthogonalLoop=1;jettySize=auto;html=1;" edge="1" parent="nd7BNRBDZUB_FumJnGTG-97" target="nd7BNRBDZUB_FumJnGTG-93">
          <mxGeometry relative="1" as="geometry">
            <mxPoint x="370" y="630" as="sourcePoint" />
          </mxGeometry>
        </mxCell>
        <mxCell id="nd7BNRBDZUB_FumJnGTG-92" value="" style="edgeStyle=orthogonalEdgeStyle;rounded=0;orthogonalLoop=1;jettySize=auto;html=1;" edge="1" parent="nd7BNRBDZUB_FumJnGTG-97" source="nd7BNRBDZUB_FumJnGTG-93" target="nd7BNRBDZUB_FumJnGTG-95">
          <mxGeometry relative="1" as="geometry" />
        </mxCell>
        <mxCell id="nd7BNRBDZUB_FumJnGTG-93" value="Choose Actions" style="shape=parallelogram;html=1;strokeWidth=2;perimeter=parallelogramPerimeter;whiteSpace=wrap;rounded=1;arcSize=12;size=0.23;" vertex="1" parent="nd7BNRBDZUB_FumJnGTG-97">
          <mxGeometry x="310" y="700" width="120" height="70" as="geometry" />
        </mxCell>
        <mxCell id="nd7BNRBDZUB_FumJnGTG-94" value="" style="edgeStyle=orthogonalEdgeStyle;rounded=0;orthogonalLoop=1;jettySize=auto;html=1;" edge="1" parent="nd7BNRBDZUB_FumJnGTG-97" source="nd7BNRBDZUB_FumJnGTG-95" target="nd7BNRBDZUB_FumJnGTG-96">
          <mxGeometry relative="1" as="geometry" />
        </mxCell>
        <mxCell id="nd7BNRBDZUB_FumJnGTG-95" value="Clicked Logout?" style="strokeWidth=2;html=1;shape=mxgraph.flowchart.decision;whiteSpace=wrap;" vertex="1" parent="nd7BNRBDZUB_FumJnGTG-97">
          <mxGeometry x="320" y="810" width="100" height="80" as="geometry" />
        </mxCell>
        <mxCell id="nd7BNRBDZUB_FumJnGTG-96" value="End" style="strokeWidth=2;html=1;shape=mxgraph.flowchart.terminator;whiteSpace=wrap;" vertex="1" parent="nd7BNRBDZUB_FumJnGTG-97">
          <mxGeometry x="320" y="940" width="100" height="40" as="geometry" />
        </mxCell>
      </root>
    </mxGraphModel>
  </diagram>
  <diagram id="haa7GAiYULs-T2C0HmRB" name="departmentManagement">
    <mxGraphModel dx="1722" dy="537" grid="1" gridSize="10" guides="1" tooltips="1" connect="1" arrows="1" fold="1" page="1" pageScale="1" pageWidth="850" pageHeight="1100" math="0" shadow="0">
      <root>
        <mxCell id="0" />
        <mxCell id="1" parent="0" />
        <mxCell id="3u7TNVFmHsjBMgz4t9Cj-1" value="" style="edgeStyle=orthogonalEdgeStyle;rounded=0;orthogonalLoop=1;jettySize=auto;html=1;fontFamily=Helvetica;fontSize=12;fontColor=default;fillOpacity=100;" edge="1" parent="1" target="3u7TNVFmHsjBMgz4t9Cj-3">
          <mxGeometry relative="1" as="geometry">
            <mxPoint x="291.9999999999998" y="51" as="sourcePoint" />
          </mxGeometry>
        </mxCell>
        <mxCell id="3u7TNVFmHsjBMgz4t9Cj-2" value="" style="edgeStyle=orthogonalEdgeStyle;rounded=0;orthogonalLoop=1;jettySize=auto;html=1;fontFamily=Helvetica;fontSize=12;fontColor=default;fillOpacity=100;" edge="1" parent="1" source="3u7TNVFmHsjBMgz4t9Cj-3" target="3u7TNVFmHsjBMgz4t9Cj-11">
          <mxGeometry relative="1" as="geometry" />
        </mxCell>
        <mxCell id="3u7TNVFmHsjBMgz4t9Cj-3" value="Choose Action&lt;div&gt;(Create, Edit, Deactivate, View)&lt;/div&gt;" style="shape=parallelogram;perimeter=parallelogramPerimeter;whiteSpace=wrap;html=1;fixedSize=1;strokeColor=default;strokeWidth=2;align=center;verticalAlign=middle;fontFamily=Helvetica;fontSize=12;fontColor=default;fillColor=default;fillOpacity=100;" vertex="1" parent="1">
          <mxGeometry x="182" y="81" width="220" height="50" as="geometry" />
        </mxCell>
        <mxCell id="3u7TNVFmHsjBMgz4t9Cj-4" value="" style="edgeStyle=orthogonalEdgeStyle;rounded=0;orthogonalLoop=1;jettySize=auto;html=1;fontFamily=Helvetica;fontSize=12;fontColor=default;entryX=1;entryY=0.5;entryDx=0;entryDy=0;fillOpacity=100;" edge="1" parent="1" source="3u7TNVFmHsjBMgz4t9Cj-11" target="3u7TNVFmHsjBMgz4t9Cj-17">
          <mxGeometry relative="1" as="geometry">
            <mxPoint x="-35" y="201" as="targetPoint" />
            <Array as="points" />
          </mxGeometry>
        </mxCell>
        <mxCell id="3u7TNVFmHsjBMgz4t9Cj-5" value="Create" style="edgeLabel;html=1;align=center;verticalAlign=middle;resizable=0;points=[];strokeColor=default;strokeWidth=2;fontFamily=Helvetica;fontSize=12;fontColor=default;fillColor=default;fillOpacity=100;" vertex="1" connectable="0" parent="3u7TNVFmHsjBMgz4t9Cj-4">
          <mxGeometry x="0.0828" y="3" relative="1" as="geometry">
            <mxPoint as="offset" />
          </mxGeometry>
        </mxCell>
        <mxCell id="3u7TNVFmHsjBMgz4t9Cj-6" style="edgeStyle=orthogonalEdgeStyle;rounded=0;orthogonalLoop=1;jettySize=auto;html=1;exitX=0;exitY=1;exitDx=0;exitDy=0;fontFamily=Helvetica;fontSize=12;fontColor=default;entryX=0.5;entryY=0;entryDx=0;entryDy=0;fillOpacity=100;" edge="1" parent="1" source="3u7TNVFmHsjBMgz4t9Cj-11" target="3u7TNVFmHsjBMgz4t9Cj-31">
          <mxGeometry relative="1" as="geometry">
            <mxPoint x="85" y="281" as="targetPoint" />
            <Array as="points">
              <mxPoint x="-275" y="221" />
            </Array>
          </mxGeometry>
        </mxCell>
        <mxCell id="3u7TNVFmHsjBMgz4t9Cj-7" value="Edit" style="edgeLabel;html=1;align=center;verticalAlign=middle;resizable=0;points=[];strokeColor=default;strokeWidth=2;fontFamily=Helvetica;fontSize=12;fontColor=default;fillColor=default;fillOpacity=100;" vertex="1" connectable="0" parent="3u7TNVFmHsjBMgz4t9Cj-6">
          <mxGeometry x="0.0907" relative="1" as="geometry">
            <mxPoint as="offset" />
          </mxGeometry>
        </mxCell>
        <mxCell id="3u7TNVFmHsjBMgz4t9Cj-8" style="edgeStyle=orthogonalEdgeStyle;rounded=0;orthogonalLoop=1;jettySize=auto;html=1;exitX=0.5;exitY=1;exitDx=0;exitDy=0;entryX=0.5;entryY=0;entryDx=0;entryDy=0;fontFamily=Helvetica;fontSize=12;fontColor=default;fillOpacity=100;" edge="1" parent="1" source="3u7TNVFmHsjBMgz4t9Cj-11" target="3u7TNVFmHsjBMgz4t9Cj-90">
          <mxGeometry relative="1" as="geometry" />
        </mxCell>
        <mxCell id="3u7TNVFmHsjBMgz4t9Cj-9" value="Deactivate" style="edgeLabel;html=1;align=center;verticalAlign=middle;resizable=0;points=[];strokeColor=default;strokeWidth=2;fontFamily=Helvetica;fontSize=12;fontColor=default;fillColor=default;fillOpacity=100;" vertex="1" connectable="0" parent="3u7TNVFmHsjBMgz4t9Cj-8">
          <mxGeometry x="-0.0266" y="-2" relative="1" as="geometry">
            <mxPoint as="offset" />
          </mxGeometry>
        </mxCell>
        <mxCell id="3u7TNVFmHsjBMgz4t9Cj-10" value="" style="edgeStyle=orthogonalEdgeStyle;rounded=0;orthogonalLoop=1;jettySize=auto;html=1;fontFamily=Helvetica;fontSize=12;fontColor=default;entryX=0;entryY=0.5;entryDx=0;entryDy=0;fillOpacity=100;" edge="1" parent="1" source="3u7TNVFmHsjBMgz4t9Cj-11" target="3u7TNVFmHsjBMgz4t9Cj-113">
          <mxGeometry relative="1" as="geometry">
            <mxPoint x="418" y="201" as="targetPoint" />
          </mxGeometry>
        </mxCell>
        <mxCell id="3u7TNVFmHsjBMgz4t9Cj-11" value="Which Action?" style="rhombus;whiteSpace=wrap;html=1;strokeColor=default;strokeWidth=2;align=center;verticalAlign=middle;fontFamily=Helvetica;fontSize=12;fontColor=default;fillColor=default;fillOpacity=100;" vertex="1" parent="1">
          <mxGeometry x="241" y="161" width="100" height="80" as="geometry" />
        </mxCell>
        <mxCell id="3u7TNVFmHsjBMgz4t9Cj-12" value="" style="edgeStyle=orthogonalEdgeStyle;rounded=0;orthogonalLoop=1;jettySize=auto;html=1;fontFamily=Helvetica;fontSize=12;fontColor=default;fillOpacity=100;" edge="1" parent="1" source="3u7TNVFmHsjBMgz4t9Cj-13" target="3u7TNVFmHsjBMgz4t9Cj-27">
          <mxGeometry relative="1" as="geometry" />
        </mxCell>
        <mxCell id="3u7TNVFmHsjBMgz4t9Cj-13" value="Check Duplication" style="shape=cylinder3;whiteSpace=wrap;html=1;boundedLbl=1;backgroundOutline=1;size=15;strokeColor=default;strokeWidth=2;align=center;verticalAlign=middle;fontFamily=Helvetica;fontSize=12;fontColor=default;fillColor=default;fillOpacity=100;" vertex="1" parent="1">
          <mxGeometry x="-530" y="441" width="70" height="80" as="geometry" />
        </mxCell>
        <mxCell id="3u7TNVFmHsjBMgz4t9Cj-14" value="" style="edgeStyle=orthogonalEdgeStyle;rounded=0;orthogonalLoop=1;jettySize=auto;html=1;fontFamily=Helvetica;fontSize=12;fontColor=default;fillOpacity=100;" edge="1" parent="1" source="3u7TNVFmHsjBMgz4t9Cj-22" target="3u7TNVFmHsjBMgz4t9Cj-13">
          <mxGeometry relative="1" as="geometry" />
        </mxCell>
        <mxCell id="3u7TNVFmHsjBMgz4t9Cj-15" value="Yes" style="edgeLabel;html=1;align=center;verticalAlign=middle;resizable=0;points=[];strokeColor=default;strokeWidth=2;fontFamily=Helvetica;fontSize=12;fontColor=default;fillColor=default;fillOpacity=100;" vertex="1" connectable="0" parent="3u7TNVFmHsjBMgz4t9Cj-14">
          <mxGeometry x="-0.6133" relative="1" as="geometry">
            <mxPoint as="offset" />
          </mxGeometry>
        </mxCell>
        <mxCell id="3u7TNVFmHsjBMgz4t9Cj-16" value="" style="edgeStyle=orthogonalEdgeStyle;rounded=0;orthogonalLoop=1;jettySize=auto;html=1;fontFamily=Helvetica;fontSize=12;fontColor=default;fillOpacity=100;" edge="1" parent="1" source="3u7TNVFmHsjBMgz4t9Cj-17" target="3u7TNVFmHsjBMgz4t9Cj-19">
          <mxGeometry relative="1" as="geometry" />
        </mxCell>
        <mxCell id="3u7TNVFmHsjBMgz4t9Cj-17" value="Enter new Department Information" style="shape=parallelogram;perimeter=parallelogramPerimeter;whiteSpace=wrap;html=1;fixedSize=1;strokeWidth=2;fillOpacity=100;" vertex="1" parent="1">
          <mxGeometry x="-572.5" y="171" width="155" height="60" as="geometry" />
        </mxCell>
        <mxCell id="3u7TNVFmHsjBMgz4t9Cj-18" value="" style="edgeStyle=orthogonalEdgeStyle;rounded=0;orthogonalLoop=1;jettySize=auto;html=1;fontFamily=Helvetica;fontSize=12;fontColor=default;fillOpacity=100;" edge="1" parent="1" source="3u7TNVFmHsjBMgz4t9Cj-19" target="3u7TNVFmHsjBMgz4t9Cj-22">
          <mxGeometry relative="1" as="geometry" />
        </mxCell>
        <mxCell id="3u7TNVFmHsjBMgz4t9Cj-19" value="Validate Input" style="rounded=0;whiteSpace=wrap;html=1;strokeColor=default;strokeWidth=2;align=center;verticalAlign=middle;fontFamily=Helvetica;fontSize=12;fontColor=default;fillColor=default;fillOpacity=100;" vertex="1" parent="1">
          <mxGeometry x="-545" y="261" width="100" height="40" as="geometry" />
        </mxCell>
        <mxCell id="3u7TNVFmHsjBMgz4t9Cj-20" value="" style="edgeStyle=orthogonalEdgeStyle;rounded=0;orthogonalLoop=1;jettySize=auto;html=1;fontFamily=Helvetica;fontSize=12;fontColor=default;fillOpacity=100;" edge="1" parent="1" source="3u7TNVFmHsjBMgz4t9Cj-22" target="3u7TNVFmHsjBMgz4t9Cj-24">
          <mxGeometry relative="1" as="geometry" />
        </mxCell>
        <mxCell id="3u7TNVFmHsjBMgz4t9Cj-21" value="No" style="edgeLabel;html=1;align=center;verticalAlign=middle;resizable=0;points=[];strokeColor=default;strokeWidth=2;fontFamily=Helvetica;fontSize=12;fontColor=default;fillColor=default;fillOpacity=100;" vertex="1" connectable="0" parent="3u7TNVFmHsjBMgz4t9Cj-20">
          <mxGeometry x="-0.1794" y="2" relative="1" as="geometry">
            <mxPoint as="offset" />
          </mxGeometry>
        </mxCell>
        <mxCell id="3u7TNVFmHsjBMgz4t9Cj-22" value="Is valid?" style="rhombus;whiteSpace=wrap;html=1;rounded=0;strokeWidth=2;fillOpacity=100;" vertex="1" parent="1">
          <mxGeometry x="-535" y="331" width="80" height="80" as="geometry" />
        </mxCell>
        <mxCell id="3u7TNVFmHsjBMgz4t9Cj-23" value="" style="edgeStyle=orthogonalEdgeStyle;rounded=0;orthogonalLoop=1;jettySize=auto;html=1;fontFamily=Helvetica;fontSize=12;fontColor=default;entryX=0.371;entryY=-0.013;entryDx=0;entryDy=0;entryPerimeter=0;fillOpacity=100;" edge="1" parent="1" source="3u7TNVFmHsjBMgz4t9Cj-24" target="3u7TNVFmHsjBMgz4t9Cj-17">
          <mxGeometry relative="1" as="geometry">
            <mxPoint x="-352.5" y="201" as="targetPoint" />
            <Array as="points">
              <mxPoint x="-655" y="131" />
              <mxPoint x="-515" y="131" />
            </Array>
          </mxGeometry>
        </mxCell>
        <mxCell id="3u7TNVFmHsjBMgz4t9Cj-24" value="Display Error Message" style="shape=parallelogram;perimeter=parallelogramPerimeter;whiteSpace=wrap;html=1;fixedSize=1;rounded=0;strokeWidth=2;fillOpacity=100;" vertex="1" parent="1">
          <mxGeometry x="-715" y="341" width="120" height="60" as="geometry" />
        </mxCell>
        <mxCell id="3u7TNVFmHsjBMgz4t9Cj-25" style="edgeStyle=orthogonalEdgeStyle;rounded=0;orthogonalLoop=1;jettySize=auto;html=1;entryX=1;entryY=0.5;entryDx=0;entryDy=0;fontFamily=Helvetica;fontSize=12;fontColor=default;fillOpacity=100;" edge="1" parent="1" source="3u7TNVFmHsjBMgz4t9Cj-27" target="3u7TNVFmHsjBMgz4t9Cj-28">
          <mxGeometry relative="1" as="geometry" />
        </mxCell>
        <mxCell id="3u7TNVFmHsjBMgz4t9Cj-26" value="Yes" style="edgeLabel;html=1;align=center;verticalAlign=middle;resizable=0;points=[];strokeColor=default;strokeWidth=2;fontFamily=Helvetica;fontSize=12;fontColor=default;fillColor=default;fillOpacity=100;" vertex="1" connectable="0" parent="3u7TNVFmHsjBMgz4t9Cj-25">
          <mxGeometry x="-0.1066" y="2" relative="1" as="geometry">
            <mxPoint y="-2" as="offset" />
          </mxGeometry>
        </mxCell>
        <mxCell id="3u7TNVFmHsjBMgz4t9Cj-27" value="Has Duplication?" style="rhombus;whiteSpace=wrap;html=1;strokeWidth=2;fillOpacity=100;" vertex="1" parent="1">
          <mxGeometry x="-549.37" y="540" width="108.75" height="90" as="geometry" />
        </mxCell>
        <mxCell id="3u7TNVFmHsjBMgz4t9Cj-28" value="Display Duplication Message" style="shape=parallelogram;perimeter=parallelogramPerimeter;whiteSpace=wrap;html=1;fixedSize=1;strokeColor=default;strokeWidth=2;align=center;verticalAlign=middle;fontFamily=Helvetica;fontSize=12;fontColor=default;fillColor=default;fillOpacity=100;" vertex="1" parent="1">
          <mxGeometry x="-845" y="556.5" width="140" height="55" as="geometry" />
        </mxCell>
        <mxCell id="3u7TNVFmHsjBMgz4t9Cj-29" value="" style="edgeStyle=orthogonalEdgeStyle;rounded=0;orthogonalLoop=1;jettySize=auto;html=1;fontFamily=Helvetica;fontSize=12;fontColor=default;exitX=0.5;exitY=0;exitDx=0;exitDy=0;fillOpacity=100;entryX=0.75;entryY=0;entryDx=0;entryDy=0;" edge="1" parent="1" source="3u7TNVFmHsjBMgz4t9Cj-28" target="3u7TNVFmHsjBMgz4t9Cj-17">
          <mxGeometry relative="1" as="geometry">
            <mxPoint x="-775" y="561" as="sourcePoint" />
            <mxPoint x="-305" y="201" as="targetPoint" />
            <Array as="points">
              <mxPoint x="-775" y="91" />
              <mxPoint x="-456" y="91" />
            </Array>
          </mxGeometry>
        </mxCell>
        <mxCell id="3u7TNVFmHsjBMgz4t9Cj-30" value="" style="edgeStyle=orthogonalEdgeStyle;rounded=0;orthogonalLoop=1;jettySize=auto;html=1;fontFamily=Helvetica;fontSize=12;fontColor=default;fillOpacity=100;" edge="1" parent="1" source="3u7TNVFmHsjBMgz4t9Cj-31" target="3u7TNVFmHsjBMgz4t9Cj-35">
          <mxGeometry relative="1" as="geometry" />
        </mxCell>
        <mxCell id="3u7TNVFmHsjBMgz4t9Cj-31" value="Choose Action&lt;div&gt;&amp;nbsp;(Select or Search)&lt;/div&gt;" style="shape=parallelogram;perimeter=parallelogramPerimeter;whiteSpace=wrap;html=1;fixedSize=1;strokeColor=default;strokeWidth=2;align=center;verticalAlign=middle;fontFamily=Helvetica;fontSize=12;fontColor=default;fillColor=default;fillOpacity=100;" vertex="1" parent="1">
          <mxGeometry x="-345" y="271" width="140" height="50" as="geometry" />
        </mxCell>
        <mxCell id="3u7TNVFmHsjBMgz4t9Cj-32" value="" style="edgeStyle=orthogonalEdgeStyle;rounded=0;orthogonalLoop=1;jettySize=auto;html=1;fontFamily=Helvetica;fontSize=12;fontColor=default;fillOpacity=100;" edge="1" parent="1" source="3u7TNVFmHsjBMgz4t9Cj-35" target="3u7TNVFmHsjBMgz4t9Cj-37">
          <mxGeometry relative="1" as="geometry" />
        </mxCell>
        <mxCell id="3u7TNVFmHsjBMgz4t9Cj-33" value="" style="edgeStyle=orthogonalEdgeStyle;rounded=0;orthogonalLoop=1;jettySize=auto;html=1;fontFamily=Helvetica;fontSize=12;fontColor=default;fillOpacity=100;" edge="1" parent="1" source="3u7TNVFmHsjBMgz4t9Cj-35" target="3u7TNVFmHsjBMgz4t9Cj-79">
          <mxGeometry relative="1" as="geometry" />
        </mxCell>
        <mxCell id="3u7TNVFmHsjBMgz4t9Cj-34" value="Search" style="edgeLabel;html=1;align=center;verticalAlign=middle;resizable=0;points=[];strokeColor=default;strokeWidth=2;fontFamily=Helvetica;fontSize=12;fontColor=default;fillColor=default;fillOpacity=100;" vertex="1" connectable="0" parent="3u7TNVFmHsjBMgz4t9Cj-33">
          <mxGeometry x="-0.0473" relative="1" as="geometry">
            <mxPoint as="offset" />
          </mxGeometry>
        </mxCell>
        <mxCell id="3u7TNVFmHsjBMgz4t9Cj-35" value="Select or Search?" style="rhombus;whiteSpace=wrap;html=1;strokeWidth=2;fillOpacity=100;" vertex="1" parent="1">
          <mxGeometry x="-315" y="351" width="80" height="80" as="geometry" />
        </mxCell>
        <mxCell id="3u7TNVFmHsjBMgz4t9Cj-36" value="" style="edgeStyle=orthogonalEdgeStyle;rounded=0;orthogonalLoop=1;jettySize=auto;html=1;fontFamily=Helvetica;fontSize=12;fontColor=default;fillOpacity=100;" edge="1" parent="1" source="3u7TNVFmHsjBMgz4t9Cj-37" target="3u7TNVFmHsjBMgz4t9Cj-41">
          <mxGeometry relative="1" as="geometry" />
        </mxCell>
        <mxCell id="3u7TNVFmHsjBMgz4t9Cj-37" value="Display information of&amp;nbsp; selected department" style="shape=parallelogram;perimeter=parallelogramPerimeter;whiteSpace=wrap;html=1;fixedSize=1;strokeWidth=2;fillOpacity=100;" vertex="1" parent="1">
          <mxGeometry x="-115" y="363.5" width="160" height="55" as="geometry" />
        </mxCell>
        <mxCell id="3u7TNVFmHsjBMgz4t9Cj-38" value="Select" style="text;html=1;align=center;verticalAlign=middle;resizable=0;points=[];autosize=1;strokeColor=none;fillColor=none;fontFamily=Helvetica;fontSize=12;fontColor=default;fillOpacity=100;" vertex="1" parent="1">
          <mxGeometry x="-215" y="369" width="60" height="30" as="geometry" />
        </mxCell>
        <mxCell id="3u7TNVFmHsjBMgz4t9Cj-39" value="" style="edgeStyle=orthogonalEdgeStyle;rounded=0;orthogonalLoop=1;jettySize=auto;html=1;fontFamily=Helvetica;fontSize=12;fontColor=default;fillOpacity=100;" edge="1" parent="1" source="3u7TNVFmHsjBMgz4t9Cj-155" target="3u7TNVFmHsjBMgz4t9Cj-43">
          <mxGeometry relative="1" as="geometry" />
        </mxCell>
        <mxCell id="3u7TNVFmHsjBMgz4t9Cj-40" value="Yes" style="edgeLabel;html=1;align=center;verticalAlign=middle;resizable=0;points=[];strokeColor=default;strokeWidth=2;fontFamily=Helvetica;fontSize=12;fontColor=default;fillColor=default;fillOpacity=100;" vertex="1" connectable="0" parent="3u7TNVFmHsjBMgz4t9Cj-39">
          <mxGeometry x="-0.0354" y="1" relative="1" as="geometry">
            <mxPoint x="1" y="-6" as="offset" />
          </mxGeometry>
        </mxCell>
        <mxCell id="3u7TNVFmHsjBMgz4t9Cj-41" value="Enter the update information" style="shape=parallelogram;perimeter=parallelogramPerimeter;whiteSpace=wrap;html=1;fixedSize=1;strokeWidth=2;fillOpacity=100;" vertex="1" parent="1">
          <mxGeometry x="-125" y="443.77" width="180" height="27" as="geometry" />
        </mxCell>
        <mxCell id="3u7TNVFmHsjBMgz4t9Cj-42" value="" style="edgeStyle=orthogonalEdgeStyle;rounded=0;orthogonalLoop=1;jettySize=auto;html=1;fontFamily=Helvetica;fontSize=12;fontColor=default;fillOpacity=100;" edge="1" parent="1" source="3u7TNVFmHsjBMgz4t9Cj-43" target="3u7TNVFmHsjBMgz4t9Cj-49">
          <mxGeometry relative="1" as="geometry" />
        </mxCell>
        <mxCell id="3u7TNVFmHsjBMgz4t9Cj-43" value="Check Duplication" style="shape=cylinder3;whiteSpace=wrap;html=1;boundedLbl=1;backgroundOutline=1;size=15;strokeColor=default;strokeWidth=2;align=center;verticalAlign=middle;fontFamily=Helvetica;fontSize=12;fontColor=default;fillColor=default;fillOpacity=100;" vertex="1" parent="1">
          <mxGeometry x="-70" y="564" width="70" height="80" as="geometry" />
        </mxCell>
        <mxCell id="3u7TNVFmHsjBMgz4t9Cj-44" value="" style="edgeStyle=orthogonalEdgeStyle;rounded=0;orthogonalLoop=1;jettySize=auto;html=1;fontFamily=Helvetica;fontSize=12;fontColor=default;fillOpacity=100;" edge="1" parent="1" source="3u7TNVFmHsjBMgz4t9Cj-49">
          <mxGeometry relative="1" as="geometry">
            <mxPoint x="-35" y="811" as="targetPoint" />
          </mxGeometry>
        </mxCell>
        <mxCell id="3u7TNVFmHsjBMgz4t9Cj-45" value="No" style="edgeLabel;html=1;align=center;verticalAlign=middle;resizable=0;points=[];strokeColor=default;strokeWidth=2;fontFamily=Helvetica;fontSize=12;fontColor=default;fillColor=default;fillOpacity=100;" vertex="1" connectable="0" parent="3u7TNVFmHsjBMgz4t9Cj-44">
          <mxGeometry x="0.0148" y="-1" relative="1" as="geometry">
            <mxPoint x="-9" y="-20" as="offset" />
          </mxGeometry>
        </mxCell>
        <mxCell id="3u7TNVFmHsjBMgz4t9Cj-46" style="edgeStyle=orthogonalEdgeStyle;rounded=0;orthogonalLoop=1;jettySize=auto;html=1;fontFamily=Helvetica;fontSize=12;fontColor=default;fillOpacity=100;" edge="1" parent="1" source="3u7TNVFmHsjBMgz4t9Cj-49" target="3u7TNVFmHsjBMgz4t9Cj-51">
          <mxGeometry relative="1" as="geometry" />
        </mxCell>
        <mxCell id="3u7TNVFmHsjBMgz4t9Cj-47" value="Yes" style="edgeLabel;html=1;align=center;verticalAlign=middle;resizable=0;points=[];strokeColor=default;strokeWidth=2;fontFamily=Helvetica;fontSize=12;fontColor=default;fillColor=default;fillOpacity=100;" vertex="1" connectable="0" parent="3u7TNVFmHsjBMgz4t9Cj-46">
          <mxGeometry x="-0.1836" y="4" relative="1" as="geometry">
            <mxPoint as="offset" />
          </mxGeometry>
        </mxCell>
        <mxCell id="3u7TNVFmHsjBMgz4t9Cj-48" value="" style="edgeStyle=orthogonalEdgeStyle;rounded=0;orthogonalLoop=1;jettySize=auto;html=1;fontFamily=Helvetica;fontSize=12;fontColor=default;" edge="1" parent="1" source="3u7TNVFmHsjBMgz4t9Cj-49" target="3u7TNVFmHsjBMgz4t9Cj-58">
          <mxGeometry relative="1" as="geometry" />
        </mxCell>
        <mxCell id="3u7TNVFmHsjBMgz4t9Cj-49" value="Has Duplication?" style="rhombus;whiteSpace=wrap;html=1;strokeWidth=2;fillOpacity=100;" vertex="1" parent="1">
          <mxGeometry x="-89.37" y="662" width="108.75" height="90" as="geometry" />
        </mxCell>
        <mxCell id="3u7TNVFmHsjBMgz4t9Cj-50" style="edgeStyle=orthogonalEdgeStyle;rounded=0;orthogonalLoop=1;jettySize=auto;html=1;fontFamily=Helvetica;fontSize=12;fontColor=default;exitX=0.75;exitY=0;exitDx=0;exitDy=0;entryX=1;entryY=0.25;entryDx=0;entryDy=0;" edge="1" parent="1" source="3u7TNVFmHsjBMgz4t9Cj-51" target="3u7TNVFmHsjBMgz4t9Cj-41">
          <mxGeometry relative="1" as="geometry">
            <mxPoint x="80" y="380" as="targetPoint" />
            <mxPoint x="159" y="671" as="sourcePoint" />
            <Array as="points">
              <mxPoint x="159" y="680" />
              <mxPoint x="159" y="450" />
              <mxPoint x="55" y="450" />
            </Array>
          </mxGeometry>
        </mxCell>
        <mxCell id="3u7TNVFmHsjBMgz4t9Cj-51" value="Display Duplication Message" style="shape=parallelogram;perimeter=parallelogramPerimeter;whiteSpace=wrap;html=1;fixedSize=1;strokeColor=default;strokeWidth=2;align=center;verticalAlign=middle;fontFamily=Helvetica;fontSize=12;fontColor=default;fillColor=default;direction=east;rotation=360;fillOpacity=100;" vertex="1" parent="1">
          <mxGeometry x="56" y="680.25" width="140" height="55" as="geometry" />
        </mxCell>
        <mxCell id="3u7TNVFmHsjBMgz4t9Cj-52" value="" style="edgeStyle=orthogonalEdgeStyle;rounded=0;orthogonalLoop=1;jettySize=auto;html=1;fontFamily=Helvetica;fontSize=12;fontColor=default;fillOpacity=100;" edge="1" parent="1" source="3u7TNVFmHsjBMgz4t9Cj-53" target="3u7TNVFmHsjBMgz4t9Cj-58">
          <mxGeometry relative="1" as="geometry">
            <Array as="points">
              <mxPoint x="-35" y="861" />
              <mxPoint x="-35" y="861" />
            </Array>
          </mxGeometry>
        </mxCell>
        <mxCell id="3u7TNVFmHsjBMgz4t9Cj-53" value="Display form to enter credentials" style="shape=parallelogram;perimeter=parallelogramPerimeter;whiteSpace=wrap;html=1;fixedSize=1;strokeColor=default;strokeWidth=2;align=center;verticalAlign=middle;fontFamily=Helvetica;fontSize=12;fontColor=default;fillColor=default;fillOpacity=100;" vertex="1" parent="1">
          <mxGeometry x="-104.99000000000001" y="793" width="149.99" height="40" as="geometry" />
        </mxCell>
        <mxCell id="3u7TNVFmHsjBMgz4t9Cj-54" value="" style="edgeStyle=orthogonalEdgeStyle;rounded=0;orthogonalLoop=1;jettySize=auto;html=1;fontFamily=Helvetica;fontSize=12;fontColor=default;fillOpacity=100;" edge="1" parent="1" source="3u7TNVFmHsjBMgz4t9Cj-58" target="3u7TNVFmHsjBMgz4t9Cj-60">
          <mxGeometry relative="1" as="geometry" />
        </mxCell>
        <mxCell id="3u7TNVFmHsjBMgz4t9Cj-55" value="Yes" style="edgeLabel;html=1;align=center;verticalAlign=middle;resizable=0;points=[];strokeColor=default;strokeWidth=2;fontFamily=Helvetica;fontSize=12;fontColor=default;fillColor=default;fillOpacity=100;" vertex="1" connectable="0" parent="3u7TNVFmHsjBMgz4t9Cj-54">
          <mxGeometry x="-0.6294" y="-1" relative="1" as="geometry">
            <mxPoint as="offset" />
          </mxGeometry>
        </mxCell>
        <mxCell id="3u7TNVFmHsjBMgz4t9Cj-56" value="" style="edgeStyle=orthogonalEdgeStyle;rounded=0;orthogonalLoop=1;jettySize=auto;html=1;fontFamily=Helvetica;fontSize=12;fontColor=default;fillOpacity=100;" edge="1" parent="1" source="3u7TNVFmHsjBMgz4t9Cj-58" target="3u7TNVFmHsjBMgz4t9Cj-62">
          <mxGeometry relative="1" as="geometry" />
        </mxCell>
        <mxCell id="3u7TNVFmHsjBMgz4t9Cj-57" value="No" style="edgeLabel;html=1;align=center;verticalAlign=middle;resizable=0;points=[];strokeColor=default;strokeWidth=2;fontFamily=Helvetica;fontSize=12;fontColor=default;fillColor=default;fillOpacity=100;" vertex="1" connectable="0" parent="3u7TNVFmHsjBMgz4t9Cj-56">
          <mxGeometry x="-0.3749" y="-4" relative="1" as="geometry">
            <mxPoint x="4" y="1" as="offset" />
          </mxGeometry>
        </mxCell>
        <mxCell id="3u7TNVFmHsjBMgz4t9Cj-58" value="Is valid?" style="rhombus;whiteSpace=wrap;html=1;strokeWidth=2;fillOpacity=100;" vertex="1" parent="1">
          <mxGeometry x="-74.99000000000001" y="864" width="80" height="50" as="geometry" />
        </mxCell>
        <mxCell id="3u7TNVFmHsjBMgz4t9Cj-59" style="edgeStyle=orthogonalEdgeStyle;rounded=0;orthogonalLoop=1;jettySize=auto;html=1;exitX=0.855;exitY=0;exitDx=0;exitDy=4.35;exitPerimeter=0;entryX=0;entryY=0.5;entryDx=0;entryDy=0;fontFamily=Helvetica;fontSize=12;fontColor=default;" edge="1" parent="1" source="3u7TNVFmHsjBMgz4t9Cj-60" target="3u7TNVFmHsjBMgz4t9Cj-162">
          <mxGeometry relative="1" as="geometry">
            <Array as="points">
              <mxPoint x="-3" y="948" />
              <mxPoint x="-3" y="921" />
            </Array>
          </mxGeometry>
        </mxCell>
        <mxCell id="3u7TNVFmHsjBMgz4t9Cj-60" value="Update Department Information" style="shape=cylinder3;whiteSpace=wrap;html=1;boundedLbl=1;backgroundOutline=1;size=15;strokeColor=default;strokeWidth=2;align=center;verticalAlign=middle;fontFamily=Helvetica;fontSize=12;fontColor=default;fillColor=default;fillOpacity=100;" vertex="1" parent="1">
          <mxGeometry x="-74.99000000000001" y="944" width="80" height="84" as="geometry" />
        </mxCell>
        <mxCell id="3u7TNVFmHsjBMgz4t9Cj-61" style="edgeStyle=orthogonalEdgeStyle;rounded=0;orthogonalLoop=1;jettySize=auto;html=1;exitX=0.5;exitY=0;exitDx=0;exitDy=0;fontFamily=Helvetica;fontSize=12;fontColor=default;fillOpacity=100;entryX=0;entryY=0.5;entryDx=0;entryDy=0;" edge="1" parent="1" source="3u7TNVFmHsjBMgz4t9Cj-62" target="3u7TNVFmHsjBMgz4t9Cj-53">
          <mxGeometry relative="1" as="geometry">
            <mxPoint x="-160" y="720" as="targetPoint" />
            <Array as="points">
              <mxPoint x="-182" y="813" />
            </Array>
          </mxGeometry>
        </mxCell>
        <mxCell id="3u7TNVFmHsjBMgz4t9Cj-62" value="Display error message" style="shape=parallelogram;perimeter=parallelogramPerimeter;whiteSpace=wrap;html=1;fixedSize=1;strokeWidth=2;fillOpacity=100;" vertex="1" parent="1">
          <mxGeometry x="-241.99" y="866.5" width="120" height="47.5" as="geometry" />
        </mxCell>
        <mxCell id="3u7TNVFmHsjBMgz4t9Cj-63" value="" style="group;fillOpacity=100;" vertex="1" connectable="0" parent="1">
          <mxGeometry x="-567" y="868" width="150" height="300" as="geometry" />
        </mxCell>
        <mxCell id="3u7TNVFmHsjBMgz4t9Cj-64" style="edgeStyle=orthogonalEdgeStyle;rounded=0;orthogonalLoop=1;jettySize=auto;html=1;exitX=0;exitY=0.5;exitDx=0;exitDy=0;exitPerimeter=0;fontFamily=Helvetica;fontSize=12;fontColor=default;" edge="1" parent="3u7TNVFmHsjBMgz4t9Cj-63" source="3u7TNVFmHsjBMgz4t9Cj-65">
          <mxGeometry relative="1" as="geometry">
            <mxPoint x="-2.9999999999997726" y="12" as="targetPoint" />
          </mxGeometry>
        </mxCell>
        <mxCell id="3u7TNVFmHsjBMgz4t9Cj-65" value="Store new Department Information" style="shape=cylinder3;whiteSpace=wrap;html=1;boundedLbl=1;backgroundOutline=1;size=15;strokeColor=default;strokeWidth=2;align=center;verticalAlign=middle;fontFamily=Helvetica;fontSize=12;fontColor=default;fillColor=default;fillOpacity=100;" vertex="1" parent="3u7TNVFmHsjBMgz4t9Cj-63">
          <mxGeometry x="35" width="80" height="90" as="geometry" />
        </mxCell>
        <mxCell id="3u7TNVFmHsjBMgz4t9Cj-66" value="End" style="strokeWidth=2;html=1;shape=mxgraph.flowchart.terminator;whiteSpace=wrap;strokeColor=default;align=center;verticalAlign=middle;fontFamily=Helvetica;fontSize=12;fontColor=default;fillColor=default;" vertex="1" parent="3u7TNVFmHsjBMgz4t9Cj-63">
          <mxGeometry x="20" y="110" width="95" height="40" as="geometry" />
        </mxCell>
        <mxCell id="3u7TNVFmHsjBMgz4t9Cj-67" value="" style="edgeStyle=orthogonalEdgeStyle;rounded=0;orthogonalLoop=1;jettySize=auto;html=1;fontFamily=Helvetica;fontSize=12;fontColor=default;fillOpacity=100;" edge="1" parent="1">
          <mxGeometry relative="1" as="geometry">
            <mxPoint x="-495" y="632" as="sourcePoint" />
            <mxPoint x="-495.3361778725957" y="669.0043215031315" as="targetPoint" />
          </mxGeometry>
        </mxCell>
        <mxCell id="3u7TNVFmHsjBMgz4t9Cj-68" value="No" style="edgeLabel;html=1;align=center;verticalAlign=middle;resizable=0;points=[];strokeColor=default;strokeWidth=2;fontFamily=Helvetica;fontSize=12;fontColor=default;fillColor=default;fillOpacity=100;" vertex="1" connectable="0" parent="3u7TNVFmHsjBMgz4t9Cj-67">
          <mxGeometry x="0.0148" y="-1" relative="1" as="geometry">
            <mxPoint as="offset" />
          </mxGeometry>
        </mxCell>
        <mxCell id="3u7TNVFmHsjBMgz4t9Cj-69" value="" style="edgeStyle=orthogonalEdgeStyle;rounded=0;orthogonalLoop=1;jettySize=auto;html=1;fontFamily=Helvetica;fontSize=12;fontColor=default;fillOpacity=100;" edge="1" parent="1" source="3u7TNVFmHsjBMgz4t9Cj-70" target="3u7TNVFmHsjBMgz4t9Cj-75">
          <mxGeometry relative="1" as="geometry">
            <Array as="points">
              <mxPoint x="-496.3361778725957" y="772.438037578288" />
              <mxPoint x="-496.3361778725957" y="772.438037578288" />
            </Array>
          </mxGeometry>
        </mxCell>
        <mxCell id="3u7TNVFmHsjBMgz4t9Cj-70" value="Display form to enter credentials" style="shape=parallelogram;perimeter=parallelogramPerimeter;whiteSpace=wrap;html=1;fixedSize=1;strokeColor=default;strokeWidth=2;align=center;verticalAlign=middle;fontFamily=Helvetica;fontSize=12;fontColor=default;fillColor=default;fillOpacity=100;" vertex="1" parent="1">
          <mxGeometry x="-570.994666488883" y="670.0043215031315" width="159.99466648888296" height="57.1469728601252" as="geometry" />
        </mxCell>
        <mxCell id="3u7TNVFmHsjBMgz4t9Cj-71" value="Yes" style="edgeLabel;html=1;align=center;verticalAlign=middle;resizable=0;points=[];strokeColor=default;strokeWidth=2;fontFamily=Helvetica;fontSize=12;fontColor=default;fillColor=default;fillOpacity=100;" vertex="1" connectable="0" parent="1">
          <mxGeometry x="-493.3922130737689" y="849.53" as="geometry" />
        </mxCell>
        <mxCell id="3u7TNVFmHsjBMgz4t9Cj-72" value="" style="edgeStyle=orthogonalEdgeStyle;rounded=0;orthogonalLoop=1;jettySize=auto;html=1;fontFamily=Helvetica;fontSize=12;fontColor=default;fillOpacity=100;" edge="1" parent="1" source="3u7TNVFmHsjBMgz4t9Cj-75" target="3u7TNVFmHsjBMgz4t9Cj-77">
          <mxGeometry relative="1" as="geometry" />
        </mxCell>
        <mxCell id="3u7TNVFmHsjBMgz4t9Cj-73" value="No" style="edgeLabel;html=1;align=center;verticalAlign=middle;resizable=0;points=[];strokeColor=default;strokeWidth=2;fontFamily=Helvetica;fontSize=12;fontColor=default;fillColor=default;fillOpacity=100;" vertex="1" connectable="0" parent="3u7TNVFmHsjBMgz4t9Cj-72">
          <mxGeometry x="-0.3749" y="-4" relative="1" as="geometry">
            <mxPoint x="-1" y="4" as="offset" />
          </mxGeometry>
        </mxCell>
        <mxCell id="3u7TNVFmHsjBMgz4t9Cj-74" value="" style="edgeStyle=orthogonalEdgeStyle;rounded=0;orthogonalLoop=1;jettySize=auto;html=1;fontFamily=Helvetica;fontSize=12;fontColor=default;fillOpacity=100;" edge="1" parent="1" source="3u7TNVFmHsjBMgz4t9Cj-75" target="3u7TNVFmHsjBMgz4t9Cj-65">
          <mxGeometry relative="1" as="geometry" />
        </mxCell>
        <mxCell id="3u7TNVFmHsjBMgz4t9Cj-75" value="Is valid?" style="rhombus;whiteSpace=wrap;html=1;strokeWidth=2;fillOpacity=100;" vertex="1" parent="1">
          <mxGeometry x="-533.9935997866596" y="763.0115240083505" width="85.33617787259574" height="71.43371607515651" as="geometry" />
        </mxCell>
        <mxCell id="3u7TNVFmHsjBMgz4t9Cj-76" style="edgeStyle=orthogonalEdgeStyle;rounded=0;orthogonalLoop=1;jettySize=auto;html=1;exitX=0.5;exitY=0;exitDx=0;exitDy=0;fontFamily=Helvetica;fontSize=12;fontColor=default;fillOpacity=100;entryX=0;entryY=0.75;entryDx=0;entryDy=0;" edge="1" parent="1" source="3u7TNVFmHsjBMgz4t9Cj-77" target="3u7TNVFmHsjBMgz4t9Cj-70">
          <mxGeometry relative="1" as="geometry">
            <mxPoint x="-496.3361778725957" y="658.1440918580375" as="targetPoint" />
            <Array as="points">
              <mxPoint x="-663" y="712" />
            </Array>
          </mxGeometry>
        </mxCell>
        <mxCell id="3u7TNVFmHsjBMgz4t9Cj-77" value="Display error message" style="shape=parallelogram;perimeter=parallelogramPerimeter;whiteSpace=wrap;html=1;fixedSize=1;strokeWidth=2;fillOpacity=100;" vertex="1" parent="1">
          <mxGeometry x="-744" y="775.01" width="162" height="48.99" as="geometry" />
        </mxCell>
        <mxCell id="3u7TNVFmHsjBMgz4t9Cj-78" value="" style="edgeStyle=orthogonalEdgeStyle;rounded=0;orthogonalLoop=1;jettySize=auto;html=1;fontFamily=Helvetica;fontSize=12;fontColor=default;fillOpacity=100;" edge="1" parent="1" source="3u7TNVFmHsjBMgz4t9Cj-79" target="3u7TNVFmHsjBMgz4t9Cj-81">
          <mxGeometry relative="1" as="geometry" />
        </mxCell>
        <mxCell id="3u7TNVFmHsjBMgz4t9Cj-79" value="Enter Keyword" style="shape=parallelogram;perimeter=parallelogramPerimeter;whiteSpace=wrap;html=1;fixedSize=1;strokeWidth=2;fillOpacity=100;" vertex="1" parent="1">
          <mxGeometry x="-335" y="481" width="120" height="60" as="geometry" />
        </mxCell>
        <mxCell id="3u7TNVFmHsjBMgz4t9Cj-80" value="" style="edgeStyle=orthogonalEdgeStyle;rounded=0;orthogonalLoop=1;jettySize=auto;html=1;fontFamily=Helvetica;fontSize=12;fontColor=default;fillOpacity=100;" edge="1" parent="1" source="3u7TNVFmHsjBMgz4t9Cj-81" target="3u7TNVFmHsjBMgz4t9Cj-86">
          <mxGeometry relative="1" as="geometry" />
        </mxCell>
        <mxCell id="3u7TNVFmHsjBMgz4t9Cj-81" value="Check Availability" style="shape=cylinder3;whiteSpace=wrap;html=1;boundedLbl=1;backgroundOutline=1;size=15;strokeColor=default;strokeWidth=2;align=center;verticalAlign=middle;fontFamily=Helvetica;fontSize=12;fontColor=default;fillColor=default;fillOpacity=100;" vertex="1" parent="1">
          <mxGeometry x="-310" y="581" width="70" height="80" as="geometry" />
        </mxCell>
        <mxCell id="3u7TNVFmHsjBMgz4t9Cj-82" style="edgeStyle=orthogonalEdgeStyle;rounded=0;orthogonalLoop=1;jettySize=auto;html=1;fontFamily=Helvetica;fontSize=12;fontColor=default;fillOpacity=100;entryX=0;entryY=1;entryDx=0;entryDy=0;" edge="1" parent="1" source="3u7TNVFmHsjBMgz4t9Cj-86" target="3u7TNVFmHsjBMgz4t9Cj-37">
          <mxGeometry relative="1" as="geometry">
            <mxPoint x="-145" y="391" as="targetPoint" />
            <Array as="points">
              <mxPoint x="-190" y="741" />
              <mxPoint x="-190" y="419" />
            </Array>
          </mxGeometry>
        </mxCell>
        <mxCell id="3u7TNVFmHsjBMgz4t9Cj-83" value="Yes" style="edgeLabel;html=1;align=center;verticalAlign=middle;resizable=0;points=[];strokeColor=default;strokeWidth=2;fontFamily=Helvetica;fontSize=12;fontColor=default;fillColor=default;fillOpacity=100;" vertex="1" connectable="0" parent="3u7TNVFmHsjBMgz4t9Cj-82">
          <mxGeometry x="-0.8694" y="3" relative="1" as="geometry">
            <mxPoint as="offset" />
          </mxGeometry>
        </mxCell>
        <mxCell id="3u7TNVFmHsjBMgz4t9Cj-84" value="" style="edgeStyle=orthogonalEdgeStyle;rounded=0;orthogonalLoop=1;jettySize=auto;html=1;fontFamily=Helvetica;fontSize=12;fontColor=default;fillOpacity=100;" edge="1" parent="1" source="3u7TNVFmHsjBMgz4t9Cj-86" target="3u7TNVFmHsjBMgz4t9Cj-88">
          <mxGeometry relative="1" as="geometry" />
        </mxCell>
        <mxCell id="3u7TNVFmHsjBMgz4t9Cj-85" value="No" style="edgeLabel;html=1;align=center;verticalAlign=middle;resizable=0;points=[];strokeColor=default;strokeWidth=2;fontFamily=Helvetica;fontSize=12;fontColor=default;fillColor=default;fillOpacity=100;" vertex="1" connectable="0" parent="3u7TNVFmHsjBMgz4t9Cj-84">
          <mxGeometry x="-0.4045" y="-1" relative="1" as="geometry">
            <mxPoint as="offset" />
          </mxGeometry>
        </mxCell>
        <mxCell id="3u7TNVFmHsjBMgz4t9Cj-86" value="Is Available?" style="rhombus;whiteSpace=wrap;html=1;strokeWidth=2;fillOpacity=100;" vertex="1" parent="1">
          <mxGeometry x="-315" y="701" width="80" height="80" as="geometry" />
        </mxCell>
        <mxCell id="3u7TNVFmHsjBMgz4t9Cj-87" value="" style="edgeStyle=orthogonalEdgeStyle;rounded=0;orthogonalLoop=1;jettySize=auto;html=1;fontFamily=Helvetica;fontSize=12;fontColor=default;fillOpacity=100;entryX=0;entryY=0.5;entryDx=0;entryDy=0;" edge="1" parent="1" source="3u7TNVFmHsjBMgz4t9Cj-88" target="3u7TNVFmHsjBMgz4t9Cj-79">
          <mxGeometry relative="1" as="geometry">
            <mxPoint x="-275" y="441" as="targetPoint" />
            <Array as="points">
              <mxPoint x="-380" y="837.25" />
              <mxPoint x="-380" y="512" />
            </Array>
          </mxGeometry>
        </mxCell>
        <mxCell id="3u7TNVFmHsjBMgz4t9Cj-88" value="Display error message" style="shape=parallelogram;perimeter=parallelogramPerimeter;whiteSpace=wrap;html=1;fixedSize=1;strokeWidth=2;fillOpacity=100;" vertex="1" parent="1">
          <mxGeometry x="-335" y="813.5" width="120" height="47.5" as="geometry" />
        </mxCell>
        <mxCell id="3u7TNVFmHsjBMgz4t9Cj-89" value="" style="edgeStyle=orthogonalEdgeStyle;rounded=0;orthogonalLoop=1;jettySize=auto;html=1;fontFamily=Helvetica;fontSize=12;fontColor=default;fillOpacity=100;" edge="1" parent="1" source="3u7TNVFmHsjBMgz4t9Cj-90" target="3u7TNVFmHsjBMgz4t9Cj-93">
          <mxGeometry relative="1" as="geometry" />
        </mxCell>
        <mxCell id="3u7TNVFmHsjBMgz4t9Cj-90" value="Choose Action&lt;div&gt;&amp;nbsp;(Select or Search)&lt;/div&gt;" style="shape=parallelogram;perimeter=parallelogramPerimeter;whiteSpace=wrap;html=1;fixedSize=1;strokeColor=default;strokeWidth=2;align=center;verticalAlign=middle;fontFamily=Helvetica;fontSize=12;fontColor=default;fillColor=default;fillOpacity=100;" vertex="1" parent="1">
          <mxGeometry x="221" y="300" width="140" height="50" as="geometry" />
        </mxCell>
        <mxCell id="3u7TNVFmHsjBMgz4t9Cj-91" value="" style="edgeStyle=orthogonalEdgeStyle;rounded=0;orthogonalLoop=1;jettySize=auto;html=1;fontFamily=Helvetica;fontSize=12;fontColor=default;fillOpacity=100;entryX=0;entryY=0;entryDx=0;entryDy=0;" edge="1" parent="1" source="3u7TNVFmHsjBMgz4t9Cj-93" target="3u7TNVFmHsjBMgz4t9Cj-125">
          <mxGeometry relative="1" as="geometry" />
        </mxCell>
        <mxCell id="3u7TNVFmHsjBMgz4t9Cj-92" value="" style="edgeStyle=orthogonalEdgeStyle;rounded=0;orthogonalLoop=1;jettySize=auto;html=1;fontFamily=Helvetica;fontSize=12;fontColor=default;fillOpacity=100;" edge="1" parent="1" source="3u7TNVFmHsjBMgz4t9Cj-93" target="3u7TNVFmHsjBMgz4t9Cj-96">
          <mxGeometry relative="1" as="geometry" />
        </mxCell>
        <mxCell id="3u7TNVFmHsjBMgz4t9Cj-93" value="Select or Search?" style="rhombus;whiteSpace=wrap;html=1;strokeWidth=2;fillOpacity=100;" vertex="1" parent="1">
          <mxGeometry x="251" y="380" width="80" height="80" as="geometry" />
        </mxCell>
        <mxCell id="3u7TNVFmHsjBMgz4t9Cj-94" value="Select" style="text;html=1;align=center;verticalAlign=middle;resizable=0;points=[];autosize=1;strokeColor=none;fillColor=none;fontFamily=Helvetica;fontSize=12;fontColor=default;fillOpacity=100;" vertex="1" parent="1">
          <mxGeometry x="351" y="398" width="60" height="30" as="geometry" />
        </mxCell>
        <mxCell id="3u7TNVFmHsjBMgz4t9Cj-95" value="" style="edgeStyle=orthogonalEdgeStyle;rounded=0;orthogonalLoop=1;jettySize=auto;html=1;fontFamily=Helvetica;fontSize=12;fontColor=default;fillOpacity=100;" edge="1" parent="1" source="3u7TNVFmHsjBMgz4t9Cj-96" target="3u7TNVFmHsjBMgz4t9Cj-98">
          <mxGeometry relative="1" as="geometry" />
        </mxCell>
        <mxCell id="3u7TNVFmHsjBMgz4t9Cj-96" value="Enter Keyword" style="shape=parallelogram;perimeter=parallelogramPerimeter;whiteSpace=wrap;html=1;fixedSize=1;strokeWidth=2;fillOpacity=100;" vertex="1" parent="1">
          <mxGeometry x="231" y="510" width="120" height="60" as="geometry" />
        </mxCell>
        <mxCell id="3u7TNVFmHsjBMgz4t9Cj-97" value="" style="edgeStyle=orthogonalEdgeStyle;rounded=0;orthogonalLoop=1;jettySize=auto;html=1;fontFamily=Helvetica;fontSize=12;fontColor=default;fillOpacity=100;" edge="1" parent="1" source="3u7TNVFmHsjBMgz4t9Cj-98" target="3u7TNVFmHsjBMgz4t9Cj-104">
          <mxGeometry relative="1" as="geometry" />
        </mxCell>
        <mxCell id="3u7TNVFmHsjBMgz4t9Cj-98" value="Check Availability" style="shape=cylinder3;whiteSpace=wrap;html=1;boundedLbl=1;backgroundOutline=1;size=15;strokeColor=default;strokeWidth=2;align=center;verticalAlign=middle;fontFamily=Helvetica;fontSize=12;fontColor=default;fillColor=default;fillOpacity=100;" vertex="1" parent="1">
          <mxGeometry x="256" y="610" width="70" height="80" as="geometry" />
        </mxCell>
        <mxCell id="3u7TNVFmHsjBMgz4t9Cj-99" style="edgeStyle=orthogonalEdgeStyle;rounded=0;orthogonalLoop=1;jettySize=auto;html=1;fontFamily=Helvetica;fontSize=12;fontColor=default;exitX=1;exitY=0.5;exitDx=0;exitDy=0;fillOpacity=100;entryX=0;entryY=0.5;entryDx=0;entryDy=0;" edge="1" parent="1" source="3u7TNVFmHsjBMgz4t9Cj-104" target="3u7TNVFmHsjBMgz4t9Cj-125">
          <mxGeometry relative="1" as="geometry">
            <mxPoint x="357" y="418.5" as="targetPoint" />
            <mxPoint x="347" y="751" as="sourcePoint" />
            <Array as="points">
              <mxPoint x="357" y="763" />
              <mxPoint x="357" y="430" />
              <mxPoint x="430" y="430" />
              <mxPoint x="430" y="421" />
            </Array>
          </mxGeometry>
        </mxCell>
        <mxCell id="3u7TNVFmHsjBMgz4t9Cj-100" value="Yes" style="edgeLabel;html=1;align=center;verticalAlign=middle;resizable=0;points=[];strokeColor=default;strokeWidth=2;fontFamily=Helvetica;fontSize=12;fontColor=default;fillColor=default;fillOpacity=100;" vertex="1" connectable="0" parent="3u7TNVFmHsjBMgz4t9Cj-99">
          <mxGeometry x="-0.8694" y="3" relative="1" as="geometry">
            <mxPoint x="-1" y="47" as="offset" />
          </mxGeometry>
        </mxCell>
        <mxCell id="3u7TNVFmHsjBMgz4t9Cj-101" value="Yes" style="edgeLabel;html=1;align=center;verticalAlign=middle;resizable=0;points=[];strokeColor=default;strokeWidth=2;fontFamily=Helvetica;fontSize=12;fontColor=default;fillColor=default;" vertex="1" connectable="0" parent="3u7TNVFmHsjBMgz4t9Cj-99">
          <mxGeometry x="-0.9362" y="-3" relative="1" as="geometry">
            <mxPoint as="offset" />
          </mxGeometry>
        </mxCell>
        <mxCell id="3u7TNVFmHsjBMgz4t9Cj-102" value="" style="edgeStyle=orthogonalEdgeStyle;rounded=0;orthogonalLoop=1;jettySize=auto;html=1;fontFamily=Helvetica;fontSize=12;fontColor=default;fillOpacity=100;" edge="1" parent="1" source="3u7TNVFmHsjBMgz4t9Cj-104" target="3u7TNVFmHsjBMgz4t9Cj-106">
          <mxGeometry relative="1" as="geometry" />
        </mxCell>
        <mxCell id="3u7TNVFmHsjBMgz4t9Cj-103" value="No" style="edgeLabel;html=1;align=center;verticalAlign=middle;resizable=0;points=[];strokeColor=default;strokeWidth=2;fontFamily=Helvetica;fontSize=12;fontColor=default;fillColor=default;fillOpacity=100;" vertex="1" connectable="0" parent="3u7TNVFmHsjBMgz4t9Cj-102">
          <mxGeometry x="-0.4045" y="-1" relative="1" as="geometry">
            <mxPoint as="offset" />
          </mxGeometry>
        </mxCell>
        <mxCell id="3u7TNVFmHsjBMgz4t9Cj-104" value="Is Available?" style="rhombus;whiteSpace=wrap;html=1;strokeWidth=2;fillOpacity=100;" vertex="1" parent="1">
          <mxGeometry x="251" y="723" width="80" height="80" as="geometry" />
        </mxCell>
        <mxCell id="3u7TNVFmHsjBMgz4t9Cj-105" value="" style="edgeStyle=orthogonalEdgeStyle;rounded=0;orthogonalLoop=1;jettySize=auto;html=1;fontFamily=Helvetica;fontSize=12;fontColor=default;fillOpacity=100;entryX=0;entryY=0.5;entryDx=0;entryDy=0;" edge="1" parent="1" source="3u7TNVFmHsjBMgz4t9Cj-106" target="3u7TNVFmHsjBMgz4t9Cj-96">
          <mxGeometry relative="1" as="geometry">
            <mxPoint x="291" y="470" as="targetPoint" />
            <Array as="points">
              <mxPoint x="200" y="866.2499999999998" />
              <mxPoint x="200" y="540" />
            </Array>
          </mxGeometry>
        </mxCell>
        <mxCell id="3u7TNVFmHsjBMgz4t9Cj-106" value="Display error message" style="shape=parallelogram;perimeter=parallelogramPerimeter;whiteSpace=wrap;html=1;fixedSize=1;strokeWidth=2;fillOpacity=100;" vertex="1" parent="1">
          <mxGeometry x="231" y="842.5" width="120" height="47.5" as="geometry" />
        </mxCell>
        <mxCell id="3u7TNVFmHsjBMgz4t9Cj-107" value="Search" style="text;html=1;align=center;verticalAlign=middle;resizable=0;points=[];autosize=1;strokeColor=none;fillColor=none;fontFamily=Helvetica;fontSize=12;fontColor=default;fillOpacity=100;" vertex="1" parent="1">
          <mxGeometry x="256" y="469" width="60" height="30" as="geometry" />
        </mxCell>
        <mxCell id="3u7TNVFmHsjBMgz4t9Cj-108" value="View" style="text;html=1;align=center;verticalAlign=middle;resizable=0;points=[];autosize=1;strokeColor=none;fillColor=none;fontFamily=Helvetica;fontSize=12;fontColor=default;fillOpacity=100;" vertex="1" parent="1">
          <mxGeometry x="361" y="179" width="50" height="30" as="geometry" />
        </mxCell>
        <mxCell id="3u7TNVFmHsjBMgz4t9Cj-109" value="" style="edgeStyle=orthogonalEdgeStyle;rounded=0;orthogonalLoop=1;jettySize=auto;html=1;fontFamily=Helvetica;fontSize=12;fontColor=default;fillOpacity=100;" edge="1" parent="1" source="3u7TNVFmHsjBMgz4t9Cj-113" target="3u7TNVFmHsjBMgz4t9Cj-115">
          <mxGeometry relative="1" as="geometry" />
        </mxCell>
        <mxCell id="3u7TNVFmHsjBMgz4t9Cj-110" value="No" style="edgeLabel;html=1;align=center;verticalAlign=middle;resizable=0;points=[];strokeColor=default;strokeWidth=2;fontFamily=Helvetica;fontSize=12;fontColor=default;fillColor=default;" vertex="1" connectable="0" parent="3u7TNVFmHsjBMgz4t9Cj-109">
          <mxGeometry x="-0.7317" relative="1" as="geometry">
            <mxPoint as="offset" />
          </mxGeometry>
        </mxCell>
        <mxCell id="3u7TNVFmHsjBMgz4t9Cj-111" style="edgeStyle=orthogonalEdgeStyle;rounded=0;orthogonalLoop=1;jettySize=auto;html=1;fontFamily=Helvetica;fontSize=12;fontColor=default;entryX=0;entryY=0.5;entryDx=0;entryDy=0;fillOpacity=100;" edge="1" parent="1" source="3u7TNVFmHsjBMgz4t9Cj-113" target="3u7TNVFmHsjBMgz4t9Cj-128">
          <mxGeometry relative="1" as="geometry">
            <mxPoint x="608" y="200.9999999999999" as="targetPoint" />
          </mxGeometry>
        </mxCell>
        <mxCell id="3u7TNVFmHsjBMgz4t9Cj-112" value="Yes" style="edgeLabel;html=1;align=center;verticalAlign=middle;resizable=0;points=[];strokeColor=default;strokeWidth=2;fontFamily=Helvetica;fontSize=12;fontColor=default;fillColor=default;" vertex="1" connectable="0" parent="3u7TNVFmHsjBMgz4t9Cj-111">
          <mxGeometry x="-0.8026" y="-3" relative="1" as="geometry">
            <mxPoint as="offset" />
          </mxGeometry>
        </mxCell>
        <mxCell id="3u7TNVFmHsjBMgz4t9Cj-113" value="Choose Search?" style="rhombus;whiteSpace=wrap;html=1;strokeColor=default;strokeWidth=2;align=center;verticalAlign=middle;fontFamily=Helvetica;fontSize=12;fontColor=default;fillColor=default;fillOpacity=100;" vertex="1" parent="1">
          <mxGeometry x="455" y="161" width="80" height="80" as="geometry" />
        </mxCell>
        <mxCell id="3u7TNVFmHsjBMgz4t9Cj-114" style="edgeStyle=orthogonalEdgeStyle;rounded=0;orthogonalLoop=1;jettySize=auto;html=1;exitX=0.75;exitY=1;exitDx=0;exitDy=0;entryX=0.676;entryY=1.015;entryDx=0;entryDy=0;fontFamily=Helvetica;fontSize=12;fontColor=default;entryPerimeter=0;" edge="1" parent="1" source="3u7TNVFmHsjBMgz4t9Cj-115" target="3u7TNVFmHsjBMgz4t9Cj-66">
          <mxGeometry relative="1" as="geometry">
            <Array as="points">
              <mxPoint x="524" y="390" />
              <mxPoint x="710" y="390" />
              <mxPoint x="710" y="1060" />
              <mxPoint x="-483" y="1060" />
            </Array>
            <mxPoint x="-480.7199999999998" y="1023.2799999999997" as="targetPoint" />
          </mxGeometry>
        </mxCell>
        <mxCell id="3u7TNVFmHsjBMgz4t9Cj-115" value="Display All Department Information" style="shape=parallelogram;perimeter=parallelogramPerimeter;whiteSpace=wrap;html=1;fixedSize=1;strokeWidth=2;fillOpacity=100;" vertex="1" parent="1">
          <mxGeometry x="434" y="281" width="120" height="60" as="geometry" />
        </mxCell>
        <mxCell id="3u7TNVFmHsjBMgz4t9Cj-116" value="" style="edgeStyle=orthogonalEdgeStyle;rounded=0;orthogonalLoop=1;jettySize=auto;html=1;fontFamily=Helvetica;fontSize=12;fontColor=default;fillOpacity=100;" edge="1" parent="1" source="3u7TNVFmHsjBMgz4t9Cj-117" target="3u7TNVFmHsjBMgz4t9Cj-123">
          <mxGeometry relative="1" as="geometry" />
        </mxCell>
        <mxCell id="3u7TNVFmHsjBMgz4t9Cj-117" value="Display Alart box&amp;nbsp;&lt;div&gt;for confirmation&lt;/div&gt;" style="shape=parallelogram;perimeter=parallelogramPerimeter;whiteSpace=wrap;html=1;fixedSize=1;strokeWidth=2;fillOpacity=100;" vertex="1" parent="1">
          <mxGeometry x="426.4069400630915" y="546.1928525130311" width="176.59305993690853" height="46.12259297269561" as="geometry" />
        </mxCell>
        <mxCell id="3u7TNVFmHsjBMgz4t9Cj-118" value="" style="edgeStyle=orthogonalEdgeStyle;rounded=0;orthogonalLoop=1;jettySize=auto;html=1;fontFamily=Helvetica;fontSize=12;fontColor=default;fillOpacity=100;" edge="1" parent="1" source="3u7TNVFmHsjBMgz4t9Cj-126" target="3u7TNVFmHsjBMgz4t9Cj-117">
          <mxGeometry relative="1" as="geometry" />
        </mxCell>
        <mxCell id="3u7TNVFmHsjBMgz4t9Cj-119" value="" style="edgeStyle=orthogonalEdgeStyle;rounded=0;orthogonalLoop=1;jettySize=auto;html=1;fontFamily=Helvetica;fontSize=12;fontColor=default;exitX=0;exitY=0.5;exitDx=0;exitDy=0;fillOpacity=100;entryX=0;entryY=1;entryDx=0;entryDy=0;" edge="1" parent="1" source="3u7TNVFmHsjBMgz4t9Cj-123" target="3u7TNVFmHsjBMgz4t9Cj-125">
          <mxGeometry relative="1" as="geometry">
            <mxPoint x="461" y="650" as="sourcePoint" />
            <mxPoint x="387.16403785488956" y="420.9214897237151" as="targetPoint" />
            <Array as="points">
              <mxPoint x="387" y="640" />
              <mxPoint x="387" y="441" />
            </Array>
          </mxGeometry>
        </mxCell>
        <mxCell id="3u7TNVFmHsjBMgz4t9Cj-120" value="No" style="edgeLabel;html=1;align=center;verticalAlign=middle;resizable=0;points=[];strokeColor=default;strokeWidth=2;fontFamily=Helvetica;fontSize=12;fontColor=default;fillColor=default;fillOpacity=100;" vertex="1" connectable="0" parent="3u7TNVFmHsjBMgz4t9Cj-119">
          <mxGeometry x="-0.7455" y="1" relative="1" as="geometry">
            <mxPoint as="offset" />
          </mxGeometry>
        </mxCell>
        <mxCell id="3u7TNVFmHsjBMgz4t9Cj-121" style="edgeStyle=orthogonalEdgeStyle;rounded=0;orthogonalLoop=1;jettySize=auto;html=1;exitX=0.5;exitY=1;exitDx=0;exitDy=0;entryX=0.5;entryY=0;entryDx=0;entryDy=0;fontFamily=Helvetica;fontSize=12;fontColor=default;" edge="1" parent="1" target="3u7TNVFmHsjBMgz4t9Cj-142">
          <mxGeometry relative="1" as="geometry">
            <mxPoint x="515.5134700315457" y="660.0075182974588" as="sourcePoint" />
            <mxPoint x="520.4164195583598" y="711.9217087530719" as="targetPoint" />
            <Array as="points">
              <mxPoint x="516" y="712" />
              <mxPoint x="520" y="712" />
            </Array>
          </mxGeometry>
        </mxCell>
        <mxCell id="3u7TNVFmHsjBMgz4t9Cj-122" value="Yes" style="edgeLabel;html=1;align=center;verticalAlign=middle;resizable=0;points=[];strokeColor=default;strokeWidth=2;fontFamily=Helvetica;fontSize=12;fontColor=default;fillColor=default;" vertex="1" connectable="0" parent="3u7TNVFmHsjBMgz4t9Cj-121">
          <mxGeometry x="0.4128" relative="1" as="geometry">
            <mxPoint x="14" y="-34" as="offset" />
          </mxGeometry>
        </mxCell>
        <mxCell id="3u7TNVFmHsjBMgz4t9Cj-123" value="Has confirmed?" style="rhombus;whiteSpace=wrap;html=1;strokeWidth=2;fillOpacity=100;" vertex="1" parent="1">
          <mxGeometry x="466.4598422712934" y="609.4248691495396" width="98.10725552050474" height="60.58264914791909" as="geometry" />
        </mxCell>
        <mxCell id="3u7TNVFmHsjBMgz4t9Cj-124" value="" style="edgeStyle=orthogonalEdgeStyle;rounded=0;orthogonalLoop=1;jettySize=auto;html=1;fontFamily=Helvetica;fontSize=12;fontColor=default;fillOpacity=100;" edge="1" parent="1" source="3u7TNVFmHsjBMgz4t9Cj-125" target="3u7TNVFmHsjBMgz4t9Cj-126">
          <mxGeometry relative="1" as="geometry" />
        </mxCell>
        <mxCell id="3u7TNVFmHsjBMgz4t9Cj-125" value="Display information of&amp;nbsp; selected department" style="shape=parallelogram;perimeter=parallelogramPerimeter;whiteSpace=wrap;html=1;fixedSize=1;strokeWidth=2;fillOpacity=100;" vertex="1" parent="1">
          <mxGeometry x="436.22" y="400.5" width="156.97" height="40" as="geometry" />
        </mxCell>
        <mxCell id="3u7TNVFmHsjBMgz4t9Cj-126" value="Press Deactivate Button" style="shape=parallelogram;perimeter=parallelogramPerimeter;whiteSpace=wrap;html=1;fixedSize=1;strokeWidth=2;fillOpacity=100;" vertex="1" parent="1">
          <mxGeometry x="426.40999999999985" y="476.68" width="176.59" height="32.82" as="geometry" />
        </mxCell>
        <mxCell id="3u7TNVFmHsjBMgz4t9Cj-127" value="" style="edgeStyle=orthogonalEdgeStyle;rounded=0;orthogonalLoop=1;jettySize=auto;html=1;fontFamily=Helvetica;fontSize=12;fontColor=default;fillOpacity=100;" edge="1" parent="1" source="3u7TNVFmHsjBMgz4t9Cj-128" target="3u7TNVFmHsjBMgz4t9Cj-130">
          <mxGeometry relative="1" as="geometry" />
        </mxCell>
        <mxCell id="3u7TNVFmHsjBMgz4t9Cj-128" value="Enter Keyword" style="shape=parallelogram;perimeter=parallelogramPerimeter;whiteSpace=wrap;html=1;fixedSize=1;strokeWidth=2;fillOpacity=100;" vertex="1" parent="1">
          <mxGeometry x="714.99" y="177.4877672209026" width="120" height="47.03087885985748" as="geometry" />
        </mxCell>
        <mxCell id="3u7TNVFmHsjBMgz4t9Cj-129" value="" style="edgeStyle=orthogonalEdgeStyle;rounded=0;orthogonalLoop=1;jettySize=auto;html=1;fontFamily=Helvetica;fontSize=12;fontColor=default;fillOpacity=100;" edge="1" parent="1" source="3u7TNVFmHsjBMgz4t9Cj-130" target="3u7TNVFmHsjBMgz4t9Cj-135">
          <mxGeometry relative="1" as="geometry" />
        </mxCell>
        <mxCell id="3u7TNVFmHsjBMgz4t9Cj-130" value="Check Availability" style="shape=cylinder3;whiteSpace=wrap;html=1;boundedLbl=1;backgroundOutline=1;size=15;strokeColor=default;strokeWidth=2;align=center;verticalAlign=middle;fontFamily=Helvetica;fontSize=12;fontColor=default;fillColor=default;fillOpacity=100;" vertex="1" parent="1">
          <mxGeometry x="739.99" y="261.0025653206651" width="69.99999999999999" height="62.70783847980998" as="geometry" />
        </mxCell>
        <mxCell id="3u7TNVFmHsjBMgz4t9Cj-131" value="" style="edgeStyle=orthogonalEdgeStyle;rounded=0;orthogonalLoop=1;jettySize=auto;html=1;fontFamily=Helvetica;fontSize=12;fontColor=default;fillOpacity=100;" edge="1" parent="1" source="3u7TNVFmHsjBMgz4t9Cj-135" target="3u7TNVFmHsjBMgz4t9Cj-137">
          <mxGeometry relative="1" as="geometry" />
        </mxCell>
        <mxCell id="3u7TNVFmHsjBMgz4t9Cj-132" value="Yes" style="edgeLabel;html=1;align=center;verticalAlign=middle;resizable=0;points=[];strokeColor=default;strokeWidth=2;fontFamily=Helvetica;fontSize=12;fontColor=default;fillColor=default;fillOpacity=100;" vertex="1" connectable="0" parent="3u7TNVFmHsjBMgz4t9Cj-131">
          <mxGeometry x="-0.4045" y="-1" relative="1" as="geometry">
            <mxPoint as="offset" />
          </mxGeometry>
        </mxCell>
        <mxCell id="3u7TNVFmHsjBMgz4t9Cj-133" style="edgeStyle=orthogonalEdgeStyle;rounded=0;orthogonalLoop=1;jettySize=auto;html=1;fontFamily=Helvetica;fontSize=12;fontColor=default;fillOpacity=100;" edge="1" parent="1" source="3u7TNVFmHsjBMgz4t9Cj-135">
          <mxGeometry relative="1" as="geometry">
            <mxPoint x="652" y="361" as="targetPoint" />
            <Array as="points">
              <mxPoint x="652" y="382" />
            </Array>
          </mxGeometry>
        </mxCell>
        <mxCell id="3u7TNVFmHsjBMgz4t9Cj-134" value="No" style="edgeLabel;html=1;align=center;verticalAlign=middle;resizable=0;points=[];strokeColor=default;strokeWidth=2;fontFamily=Helvetica;fontSize=12;fontColor=default;fillColor=default;fillOpacity=100;" vertex="1" connectable="0" parent="3u7TNVFmHsjBMgz4t9Cj-133">
          <mxGeometry x="-0.4203" y="-2" relative="1" as="geometry">
            <mxPoint as="offset" />
          </mxGeometry>
        </mxCell>
        <mxCell id="3u7TNVFmHsjBMgz4t9Cj-135" value="Is Available?" style="rhombus;whiteSpace=wrap;html=1;strokeWidth=2;fillOpacity=100;" vertex="1" parent="1">
          <mxGeometry x="734.99" y="351.0043230403801" width="79.99999999999999" height="62.70783847980998" as="geometry" />
        </mxCell>
        <mxCell id="3u7TNVFmHsjBMgz4t9Cj-136" style="edgeStyle=orthogonalEdgeStyle;rounded=0;orthogonalLoop=1;jettySize=auto;html=1;exitX=0.5;exitY=1;exitDx=0;exitDy=0;entryX=0;entryY=1;entryDx=0;entryDy=0;fontFamily=Helvetica;fontSize=12;fontColor=default;" edge="1" parent="1" source="3u7TNVFmHsjBMgz4t9Cj-137">
          <mxGeometry relative="1" as="geometry">
            <Array as="points">
              <mxPoint x="778" y="1080" />
              <mxPoint x="-520" y="1080" />
            </Array>
            <mxPoint x="-520.2842712474619" y="1020.1421356237308" as="targetPoint" />
          </mxGeometry>
        </mxCell>
        <mxCell id="3u7TNVFmHsjBMgz4t9Cj-137" value="Display Searched Information" style="shape=parallelogram;perimeter=parallelogramPerimeter;whiteSpace=wrap;html=1;fixedSize=1;strokeWidth=2;fillOpacity=100;" vertex="1" parent="1">
          <mxGeometry x="714.99" y="443.77" width="127.01" height="37.23" as="geometry" />
        </mxCell>
        <mxCell id="3u7TNVFmHsjBMgz4t9Cj-138" value="Search" style="text;html=1;align=center;verticalAlign=middle;resizable=0;points=[];autosize=1;strokeColor=none;fillColor=none;fontFamily=Helvetica;fontSize=12;fontColor=default;fillOpacity=100;" vertex="1" parent="1">
          <mxGeometry x="737" y="171" width="60" height="30" as="geometry" />
        </mxCell>
        <mxCell id="3u7TNVFmHsjBMgz4t9Cj-139" style="edgeStyle=orthogonalEdgeStyle;rounded=0;orthogonalLoop=1;jettySize=auto;html=1;exitX=0.5;exitY=0;exitDx=0;exitDy=0;fontFamily=Helvetica;fontSize=12;fontColor=default;fillOpacity=100;" edge="1" parent="1" source="3u7TNVFmHsjBMgz4t9Cj-140">
          <mxGeometry relative="1" as="geometry">
            <mxPoint x="651.8823529411766" y="200.9999999999999" as="targetPoint" />
          </mxGeometry>
        </mxCell>
        <mxCell id="3u7TNVFmHsjBMgz4t9Cj-140" value="Display error message" style="shape=parallelogram;perimeter=parallelogramPerimeter;whiteSpace=wrap;html=1;fixedSize=1;strokeWidth=2;fillOpacity=100;" vertex="1" parent="1">
          <mxGeometry x="592" y="322.99722090261287" width="120" height="37.23277909738717" as="geometry" />
        </mxCell>
        <mxCell id="3u7TNVFmHsjBMgz4t9Cj-141" value="" style="edgeStyle=orthogonalEdgeStyle;rounded=0;orthogonalLoop=1;jettySize=auto;html=1;fontFamily=Helvetica;fontSize=12;fontColor=default;fillOpacity=100;" edge="1" parent="1" target="3u7TNVFmHsjBMgz4t9Cj-147">
          <mxGeometry relative="1" as="geometry">
            <Array as="points">
              <mxPoint x="515.5061514195584" y="770.7839714262565" />
              <mxPoint x="515.5061514195584" y="770.7839714262565" />
            </Array>
            <mxPoint x="515.4799999999998" y="760.8115188916196" as="sourcePoint" />
          </mxGeometry>
        </mxCell>
        <mxCell id="3u7TNVFmHsjBMgz4t9Cj-142" value="Display form to enter credentials" style="shape=parallelogram;perimeter=parallelogramPerimeter;whiteSpace=wrap;html=1;fixedSize=1;strokeColor=default;strokeWidth=2;align=center;verticalAlign=middle;fontFamily=Helvetica;fontSize=12;fontColor=default;fillColor=default;fillOpacity=100;" vertex="1" parent="1">
          <mxGeometry x="446.8408832807572" y="721.921708753072" width="147.15107255520508" height="39.88981013854755" as="geometry" />
        </mxCell>
        <mxCell id="3u7TNVFmHsjBMgz4t9Cj-143" value="" style="edgeStyle=orthogonalEdgeStyle;rounded=0;orthogonalLoop=1;jettySize=auto;html=1;fontFamily=Helvetica;fontSize=12;fontColor=default;fillOpacity=100;" edge="1" parent="1" source="3u7TNVFmHsjBMgz4t9Cj-147" target="3u7TNVFmHsjBMgz4t9Cj-149">
          <mxGeometry relative="1" as="geometry" />
        </mxCell>
        <mxCell id="3u7TNVFmHsjBMgz4t9Cj-144" value="Yes" style="edgeLabel;html=1;align=center;verticalAlign=middle;resizable=0;points=[];strokeColor=default;strokeWidth=2;fontFamily=Helvetica;fontSize=12;fontColor=default;fillColor=default;fillOpacity=100;" vertex="1" connectable="0" parent="3u7TNVFmHsjBMgz4t9Cj-143">
          <mxGeometry x="-0.6294" y="-1" relative="1" as="geometry">
            <mxPoint as="offset" />
          </mxGeometry>
        </mxCell>
        <mxCell id="3u7TNVFmHsjBMgz4t9Cj-145" value="" style="edgeStyle=orthogonalEdgeStyle;rounded=0;orthogonalLoop=1;jettySize=auto;html=1;fontFamily=Helvetica;fontSize=12;fontColor=default;fillOpacity=100;" edge="1" parent="1" source="3u7TNVFmHsjBMgz4t9Cj-147" target="3u7TNVFmHsjBMgz4t9Cj-151">
          <mxGeometry relative="1" as="geometry" />
        </mxCell>
        <mxCell id="3u7TNVFmHsjBMgz4t9Cj-146" value="No" style="edgeLabel;html=1;align=center;verticalAlign=middle;resizable=0;points=[];strokeColor=default;strokeWidth=2;fontFamily=Helvetica;fontSize=12;fontColor=default;fillColor=default;fillOpacity=100;" vertex="1" connectable="0" parent="3u7TNVFmHsjBMgz4t9Cj-145">
          <mxGeometry x="-0.1999" y="1" relative="1" as="geometry">
            <mxPoint x="-2" as="offset" />
          </mxGeometry>
        </mxCell>
        <mxCell id="3u7TNVFmHsjBMgz4t9Cj-147" value="Is valid?" style="rhombus;whiteSpace=wrap;html=1;strokeWidth=2;fillOpacity=100;" vertex="1" parent="1">
          <mxGeometry x="476.27305993690857" y="790.7288764955302" width="78.4858044164038" height="49.86226267318444" as="geometry" />
        </mxCell>
        <mxCell id="3u7TNVFmHsjBMgz4t9Cj-148" style="edgeStyle=orthogonalEdgeStyle;rounded=0;orthogonalLoop=1;jettySize=auto;html=1;exitX=0.855;exitY=0;exitDx=0;exitDy=4.35;exitPerimeter=0;entryX=0;entryY=0.5;entryDx=0;entryDy=0;fontFamily=Helvetica;fontSize=12;fontColor=default;" edge="1" parent="1" source="3u7TNVFmHsjBMgz4t9Cj-149" target="3u7TNVFmHsjBMgz4t9Cj-183">
          <mxGeometry relative="1" as="geometry">
            <Array as="points">
              <mxPoint x="560" y="885" />
              <mxPoint x="560" y="786" />
            </Array>
          </mxGeometry>
        </mxCell>
        <mxCell id="3u7TNVFmHsjBMgz4t9Cj-149" value="Update Department Information" style="shape=cylinder3;whiteSpace=wrap;html=1;boundedLbl=1;backgroundOutline=1;size=15;strokeColor=default;strokeWidth=2;align=center;verticalAlign=middle;fontFamily=Helvetica;fontSize=12;fontColor=default;fillColor=default;fillOpacity=100;" vertex="1" parent="1">
          <mxGeometry x="479" y="880.48" width="74.76" height="89.75" as="geometry" />
        </mxCell>
        <mxCell id="3u7TNVFmHsjBMgz4t9Cj-150" style="edgeStyle=orthogonalEdgeStyle;rounded=0;orthogonalLoop=1;jettySize=auto;html=1;exitX=0.544;exitY=0.01;exitDx=0;exitDy=0;fontFamily=Helvetica;fontSize=12;fontColor=default;exitPerimeter=0;fillOpacity=100;entryX=0;entryY=0.25;entryDx=0;entryDy=0;" edge="1" parent="1" target="3u7TNVFmHsjBMgz4t9Cj-142">
          <mxGeometry relative="1" as="geometry">
            <mxPoint x="515.4970347003155" y="690.9644613390229" as="targetPoint" />
            <Array as="points">
              <mxPoint x="399" y="734" />
            </Array>
            <mxPoint x="398.0451200000002" y="796.5970999999998" as="sourcePoint" />
          </mxGeometry>
        </mxCell>
        <mxCell id="3u7TNVFmHsjBMgz4t9Cj-151" value="Display error message" style="shape=parallelogram;perimeter=parallelogramPerimeter;whiteSpace=wrap;html=1;fixedSize=1;strokeWidth=2;fillOpacity=100;" vertex="1" parent="1">
          <mxGeometry x="335" y="781.2199999999999" width="117.73" height="37.71" as="geometry" />
        </mxCell>
        <mxCell id="3u7TNVFmHsjBMgz4t9Cj-152" value="" style="edgeStyle=orthogonalEdgeStyle;rounded=0;orthogonalLoop=1;jettySize=auto;html=1;fontFamily=Helvetica;fontSize=12;fontColor=default;fillOpacity=100;" edge="1" parent="1" source="3u7TNVFmHsjBMgz4t9Cj-41" target="3u7TNVFmHsjBMgz4t9Cj-155">
          <mxGeometry relative="1" as="geometry">
            <mxPoint x="-35" y="471" as="sourcePoint" />
            <mxPoint x="-35" y="564" as="targetPoint" />
          </mxGeometry>
        </mxCell>
        <mxCell id="3u7TNVFmHsjBMgz4t9Cj-153" style="edgeStyle=orthogonalEdgeStyle;rounded=0;orthogonalLoop=1;jettySize=auto;html=1;fontFamily=Helvetica;fontSize=12;fontColor=default;fillOpacity=100;" edge="1" parent="1">
          <mxGeometry relative="1" as="geometry">
            <mxPoint x="-2.0084514044249318" y="516.1200000000001" as="sourcePoint" />
            <mxPoint x="37" y="516" as="targetPoint" />
            <Array as="points">
              <mxPoint x="17" y="516" />
              <mxPoint x="17" y="516" />
            </Array>
          </mxGeometry>
        </mxCell>
        <mxCell id="3u7TNVFmHsjBMgz4t9Cj-154" value="No" style="edgeLabel;html=1;align=center;verticalAlign=middle;resizable=0;points=[];strokeColor=default;strokeWidth=2;fontFamily=Helvetica;fontSize=12;fontColor=default;fillColor=default;" vertex="1" connectable="0" parent="3u7TNVFmHsjBMgz4t9Cj-153">
          <mxGeometry x="-0.6407" y="-2" relative="1" as="geometry">
            <mxPoint x="7" as="offset" />
          </mxGeometry>
        </mxCell>
        <mxCell id="3u7TNVFmHsjBMgz4t9Cj-155" value="Is valid?" style="rhombus;whiteSpace=wrap;html=1;rounded=0;strokeWidth=2;fillOpacity=100;" vertex="1" parent="1">
          <mxGeometry x="-69" y="496" width="68" height="40.23" as="geometry" />
        </mxCell>
        <mxCell id="3u7TNVFmHsjBMgz4t9Cj-156" style="edgeStyle=orthogonalEdgeStyle;rounded=0;orthogonalLoop=1;jettySize=auto;html=1;exitX=0.5;exitY=0;exitDx=0;exitDy=0;fontFamily=Helvetica;fontSize=12;fontColor=default;entryX=1;entryY=1;entryDx=0;entryDy=0;" edge="1" parent="1" target="3u7TNVFmHsjBMgz4t9Cj-41">
          <mxGeometry relative="1" as="geometry">
            <mxPoint x="-35" y="433" as="targetPoint" />
            <mxPoint x="80" y="503.3499999999999" as="sourcePoint" />
            <Array as="points">
              <mxPoint x="80" y="468" />
            </Array>
          </mxGeometry>
        </mxCell>
        <mxCell id="3u7TNVFmHsjBMgz4t9Cj-157" value="Display Error Message" style="shape=parallelogram;perimeter=parallelogramPerimeter;whiteSpace=wrap;html=1;fixedSize=1;rounded=0;strokeWidth=2;fillOpacity=100;" vertex="1" parent="1">
          <mxGeometry x="24" y="506.35" width="110" height="34.88" as="geometry" />
        </mxCell>
        <mxCell id="3u7TNVFmHsjBMgz4t9Cj-158" style="edgeStyle=orthogonalEdgeStyle;rounded=0;orthogonalLoop=1;jettySize=auto;html=1;exitX=0.5;exitY=0;exitDx=0;exitDy=0;fontFamily=Helvetica;fontSize=12;fontColor=default;entryX=0.75;entryY=0;entryDx=0;entryDy=0;" edge="1" parent="1" source="3u7TNVFmHsjBMgz4t9Cj-163" target="3u7TNVFmHsjBMgz4t9Cj-53">
          <mxGeometry relative="1" as="geometry">
            <mxPoint x="-33" y="760" as="targetPoint" />
            <Array as="points">
              <mxPoint x="105" y="760" />
              <mxPoint x="8" y="760" />
            </Array>
          </mxGeometry>
        </mxCell>
        <mxCell id="3u7TNVFmHsjBMgz4t9Cj-159" value="Display HR Dashboard" style="shape=parallelogram;perimeter=parallelogramPerimeter;whiteSpace=wrap;html=1;fixedSize=1;strokeWidth=2;fillOpacity=100;" vertex="1" parent="1">
          <mxGeometry x="-374" y="986" width="160" height="40" as="geometry" />
        </mxCell>
        <mxCell id="3u7TNVFmHsjBMgz4t9Cj-160" value="" style="edgeStyle=orthogonalEdgeStyle;rounded=0;orthogonalLoop=1;jettySize=auto;html=1;fontFamily=Helvetica;fontSize=12;fontColor=default;fillOpacity=100;" edge="1" parent="1" source="3u7TNVFmHsjBMgz4t9Cj-159">
          <mxGeometry relative="1" as="geometry">
            <mxPoint x="-450" y="1006" as="targetPoint" />
          </mxGeometry>
        </mxCell>
        <mxCell id="3u7TNVFmHsjBMgz4t9Cj-161" value="" style="group" vertex="1" connectable="0" parent="1">
          <mxGeometry x="17" y="791" width="237" height="169.48000000000002" as="geometry" />
        </mxCell>
        <mxCell id="3u7TNVFmHsjBMgz4t9Cj-162" value="Succeed?" style="rhombus;whiteSpace=wrap;html=1;strokeColor=default;strokeWidth=2;align=center;verticalAlign=middle;fontFamily=Helvetica;fontSize=12;fontColor=default;fillColor=default;" vertex="1" parent="3u7TNVFmHsjBMgz4t9Cj-161">
          <mxGeometry y="90" width="80" height="79.48" as="geometry" />
        </mxCell>
        <mxCell id="3u7TNVFmHsjBMgz4t9Cj-163" value="Display Error Message" style="shape=parallelogram;perimeter=parallelogramPerimeter;whiteSpace=wrap;html=1;fixedSize=1;strokeColor=default;strokeWidth=2;align=center;verticalAlign=middle;fontFamily=Helvetica;fontSize=12;fontColor=default;fillColor=default;" vertex="1" parent="3u7TNVFmHsjBMgz4t9Cj-161">
          <mxGeometry x="28" width="120" height="33" as="geometry" />
        </mxCell>
        <mxCell id="3u7TNVFmHsjBMgz4t9Cj-164" style="edgeStyle=orthogonalEdgeStyle;rounded=0;orthogonalLoop=1;jettySize=auto;html=1;exitX=1;exitY=0;exitDx=0;exitDy=0;entryX=0.428;entryY=0.982;entryDx=0;entryDy=0;entryPerimeter=0;fontFamily=Helvetica;fontSize=12;fontColor=default;" edge="1" parent="3u7TNVFmHsjBMgz4t9Cj-161" source="3u7TNVFmHsjBMgz4t9Cj-162" target="3u7TNVFmHsjBMgz4t9Cj-163">
          <mxGeometry relative="1" as="geometry" />
        </mxCell>
        <mxCell id="3u7TNVFmHsjBMgz4t9Cj-165" value="No" style="edgeLabel;html=1;align=center;verticalAlign=middle;resizable=0;points=[];strokeColor=default;strokeWidth=2;fontFamily=Helvetica;fontSize=12;fontColor=default;fillColor=default;" vertex="1" connectable="0" parent="3u7TNVFmHsjBMgz4t9Cj-164">
          <mxGeometry x="-0.4005" y="1" relative="1" as="geometry">
            <mxPoint as="offset" />
          </mxGeometry>
        </mxCell>
        <mxCell id="3u7TNVFmHsjBMgz4t9Cj-166" value="Display Success Message" style="shape=parallelogram;perimeter=parallelogramPerimeter;whiteSpace=wrap;html=1;fixedSize=1;strokeWidth=2;" vertex="1" parent="3u7TNVFmHsjBMgz4t9Cj-161">
          <mxGeometry x="117" y="109.74000000000001" width="120" height="40" as="geometry" />
        </mxCell>
        <mxCell id="3u7TNVFmHsjBMgz4t9Cj-167" value="" style="edgeStyle=orthogonalEdgeStyle;rounded=0;orthogonalLoop=1;jettySize=auto;html=1;fontFamily=Helvetica;fontSize=12;fontColor=default;" edge="1" parent="3u7TNVFmHsjBMgz4t9Cj-161" source="3u7TNVFmHsjBMgz4t9Cj-162" target="3u7TNVFmHsjBMgz4t9Cj-166">
          <mxGeometry relative="1" as="geometry" />
        </mxCell>
        <mxCell id="3u7TNVFmHsjBMgz4t9Cj-168" value="Yes" style="edgeLabel;html=1;align=center;verticalAlign=middle;resizable=0;points=[];strokeColor=default;strokeWidth=2;fontFamily=Helvetica;fontSize=12;fontColor=default;fillColor=default;" vertex="1" connectable="0" parent="3u7TNVFmHsjBMgz4t9Cj-167">
          <mxGeometry x="-0.5366" y="-1" relative="1" as="geometry">
            <mxPoint x="4" y="-1" as="offset" />
          </mxGeometry>
        </mxCell>
        <mxCell id="3u7TNVFmHsjBMgz4t9Cj-169" value="" style="group;rotation=-180;direction=east;" vertex="1" connectable="0" parent="1">
          <mxGeometry x="-806" y="840.59" width="237" height="169.48000000000002" as="geometry" />
        </mxCell>
        <mxCell id="3u7TNVFmHsjBMgz4t9Cj-170" style="edgeStyle=orthogonalEdgeStyle;rounded=0;orthogonalLoop=1;jettySize=auto;html=1;exitX=0.5;exitY=0;exitDx=0;exitDy=0;entryX=1;entryY=0.5;entryDx=0;entryDy=0;fontFamily=Helvetica;fontSize=12;fontColor=default;" edge="1" parent="3u7TNVFmHsjBMgz4t9Cj-169" source="3u7TNVFmHsjBMgz4t9Cj-174" target="3u7TNVFmHsjBMgz4t9Cj-176">
          <mxGeometry relative="1" as="geometry" />
        </mxCell>
        <mxCell id="3u7TNVFmHsjBMgz4t9Cj-171" value="No" style="edgeLabel;html=1;align=center;verticalAlign=middle;resizable=0;points=[];strokeColor=default;strokeWidth=2;fontFamily=Helvetica;fontSize=12;fontColor=default;fillColor=default;" vertex="1" connectable="0" parent="3u7TNVFmHsjBMgz4t9Cj-170">
          <mxGeometry x="-0.5252" y="-3" relative="1" as="geometry">
            <mxPoint as="offset" />
          </mxGeometry>
        </mxCell>
        <mxCell id="3u7TNVFmHsjBMgz4t9Cj-172" style="edgeStyle=orthogonalEdgeStyle;rounded=0;orthogonalLoop=1;jettySize=auto;html=1;exitX=0;exitY=0.5;exitDx=0;exitDy=0;entryX=0.5;entryY=0;entryDx=0;entryDy=0;fontFamily=Helvetica;fontSize=12;fontColor=default;" edge="1" parent="3u7TNVFmHsjBMgz4t9Cj-169" source="3u7TNVFmHsjBMgz4t9Cj-174" target="3u7TNVFmHsjBMgz4t9Cj-177">
          <mxGeometry relative="1" as="geometry" />
        </mxCell>
        <mxCell id="3u7TNVFmHsjBMgz4t9Cj-173" value="Yes" style="edgeLabel;html=1;align=center;verticalAlign=middle;resizable=0;points=[];strokeColor=default;strokeWidth=2;fontFamily=Helvetica;fontSize=12;fontColor=default;fillColor=default;" vertex="1" connectable="0" parent="3u7TNVFmHsjBMgz4t9Cj-172">
          <mxGeometry x="-0.7018" relative="1" as="geometry">
            <mxPoint as="offset" />
          </mxGeometry>
        </mxCell>
        <mxCell id="3u7TNVFmHsjBMgz4t9Cj-174" value="Succeed?" style="rhombus;whiteSpace=wrap;html=1;strokeColor=default;strokeWidth=2;align=center;verticalAlign=middle;fontFamily=Helvetica;fontSize=12;fontColor=default;fillColor=default;rotation=0;flipH=1;flipV=1;horizontal=1;direction=north;" vertex="1" parent="3u7TNVFmHsjBMgz4t9Cj-169">
          <mxGeometry x="158.26" y="-0.259999999999998" width="79.48" height="80" as="geometry" />
        </mxCell>
        <mxCell id="3u7TNVFmHsjBMgz4t9Cj-175" style="edgeStyle=orthogonalEdgeStyle;rounded=0;orthogonalLoop=1;jettySize=auto;html=1;exitX=0.25;exitY=0;exitDx=0;exitDy=0;fontFamily=Helvetica;fontSize=12;fontColor=default;entryX=0;entryY=0.25;entryDx=0;entryDy=0;" edge="1" parent="3u7TNVFmHsjBMgz4t9Cj-169" target="3u7TNVFmHsjBMgz4t9Cj-70">
          <mxGeometry relative="1" as="geometry">
            <mxPoint x="311" y="-200.59000000000003" as="targetPoint" />
            <mxPoint x="25" y="23.239999999999895" as="sourcePoint" />
            <Array as="points">
              <mxPoint x="25" y="-154" />
            </Array>
          </mxGeometry>
        </mxCell>
        <mxCell id="3u7TNVFmHsjBMgz4t9Cj-176" value="Display Error Message" style="shape=parallelogram;perimeter=parallelogramPerimeter;whiteSpace=wrap;html=1;fixedSize=1;strokeColor=default;strokeWidth=2;align=center;verticalAlign=middle;fontFamily=Helvetica;fontSize=12;fontColor=default;fillColor=default;rotation=0;" vertex="1" parent="3u7TNVFmHsjBMgz4t9Cj-169">
          <mxGeometry y="23.239999999999995" width="120" height="33" as="geometry" />
        </mxCell>
        <mxCell id="3u7TNVFmHsjBMgz4t9Cj-177" value="Display Success Message" style="shape=parallelogram;perimeter=parallelogramPerimeter;whiteSpace=wrap;html=1;fixedSize=1;strokeWidth=2;rotation=0;" vertex="1" parent="3u7TNVFmHsjBMgz4t9Cj-169">
          <mxGeometry x="86" y="119.41" width="120" height="40" as="geometry" />
        </mxCell>
        <mxCell id="3u7TNVFmHsjBMgz4t9Cj-178" style="edgeStyle=orthogonalEdgeStyle;rounded=0;orthogonalLoop=1;jettySize=auto;html=1;entryX=0.5;entryY=0;entryDx=0;entryDy=0;fontFamily=Helvetica;fontSize=12;fontColor=default;" edge="1" parent="1" source="3u7TNVFmHsjBMgz4t9Cj-177" target="3u7TNVFmHsjBMgz4t9Cj-159">
          <mxGeometry relative="1" as="geometry">
            <Array as="points">
              <mxPoint x="-294" y="966" />
            </Array>
          </mxGeometry>
        </mxCell>
        <mxCell id="3u7TNVFmHsjBMgz4t9Cj-179" style="edgeStyle=orthogonalEdgeStyle;rounded=0;orthogonalLoop=1;jettySize=auto;html=1;exitX=0.5;exitY=0;exitDx=0;exitDy=0;entryX=0.5;entryY=1;entryDx=0;entryDy=0;fontFamily=Helvetica;fontSize=12;fontColor=default;" edge="1" parent="1" source="3u7TNVFmHsjBMgz4t9Cj-183" target="3u7TNVFmHsjBMgz4t9Cj-185">
          <mxGeometry relative="1" as="geometry" />
        </mxCell>
        <mxCell id="3u7TNVFmHsjBMgz4t9Cj-180" value="No" style="edgeLabel;html=1;align=center;verticalAlign=middle;resizable=0;points=[];strokeColor=default;strokeWidth=2;fontFamily=Helvetica;fontSize=12;fontColor=default;fillColor=default;" vertex="1" connectable="0" parent="3u7TNVFmHsjBMgz4t9Cj-179">
          <mxGeometry x="-0.6196" y="-2" relative="1" as="geometry">
            <mxPoint as="offset" />
          </mxGeometry>
        </mxCell>
        <mxCell id="3u7TNVFmHsjBMgz4t9Cj-181" style="edgeStyle=orthogonalEdgeStyle;rounded=0;orthogonalLoop=1;jettySize=auto;html=1;exitX=0.5;exitY=1;exitDx=0;exitDy=0;entryX=0.5;entryY=0;entryDx=0;entryDy=0;fontFamily=Helvetica;fontSize=12;fontColor=default;" edge="1" parent="1" source="3u7TNVFmHsjBMgz4t9Cj-183" target="3u7TNVFmHsjBMgz4t9Cj-187">
          <mxGeometry relative="1" as="geometry" />
        </mxCell>
        <mxCell id="3u7TNVFmHsjBMgz4t9Cj-182" value="Yes" style="edgeLabel;html=1;align=center;verticalAlign=middle;resizable=0;points=[];strokeColor=default;strokeWidth=2;fontFamily=Helvetica;fontSize=12;fontColor=default;fillColor=default;" vertex="1" connectable="0" parent="3u7TNVFmHsjBMgz4t9Cj-181">
          <mxGeometry x="0.1038" y="2" relative="1" as="geometry">
            <mxPoint as="offset" />
          </mxGeometry>
        </mxCell>
        <mxCell id="3u7TNVFmHsjBMgz4t9Cj-183" value="Succeed?" style="rhombus;whiteSpace=wrap;html=1;strokeColor=default;strokeWidth=2;align=center;verticalAlign=middle;fontFamily=Helvetica;fontSize=12;fontColor=default;fillColor=default;" vertex="1" parent="1">
          <mxGeometry x="580" y="761.8100000000001" width="80" height="49.25" as="geometry" />
        </mxCell>
        <mxCell id="3u7TNVFmHsjBMgz4t9Cj-184" style="edgeStyle=orthogonalEdgeStyle;rounded=0;orthogonalLoop=1;jettySize=auto;html=1;exitX=0;exitY=0.5;exitDx=0;exitDy=0;fontFamily=Helvetica;fontSize=12;fontColor=default;entryX=0.75;entryY=0;entryDx=0;entryDy=0;" edge="1" parent="1" target="3u7TNVFmHsjBMgz4t9Cj-142">
          <mxGeometry relative="1" as="geometry">
            <mxPoint x="515" y="686.8235294117646" as="targetPoint" />
            <mxPoint x="581" y="686.51" as="sourcePoint" />
            <Array as="points">
              <mxPoint x="550" y="687" />
              <mxPoint x="550" y="702" />
              <mxPoint x="557" y="702" />
            </Array>
          </mxGeometry>
        </mxCell>
        <mxCell id="3u7TNVFmHsjBMgz4t9Cj-185" value="Display Error Message" style="shape=parallelogram;perimeter=parallelogramPerimeter;whiteSpace=wrap;html=1;fixedSize=1;strokeColor=default;strokeWidth=2;align=center;verticalAlign=middle;fontFamily=Helvetica;fontSize=12;fontColor=default;fillColor=default;" vertex="1" parent="1">
          <mxGeometry x="573" y="670.01" width="120" height="33" as="geometry" />
        </mxCell>
        <mxCell id="3u7TNVFmHsjBMgz4t9Cj-186" style="edgeStyle=orthogonalEdgeStyle;rounded=0;orthogonalLoop=1;jettySize=auto;html=1;exitX=0.5;exitY=1;exitDx=0;exitDy=0;entryX=0.5;entryY=1;entryDx=0;entryDy=0;fontFamily=Helvetica;fontSize=12;fontColor=default;" edge="1" parent="1" source="3u7TNVFmHsjBMgz4t9Cj-187" target="3u7TNVFmHsjBMgz4t9Cj-159">
          <mxGeometry relative="1" as="geometry" />
        </mxCell>
        <mxCell id="3u7TNVFmHsjBMgz4t9Cj-187" value="Display Success Message" style="shape=parallelogram;perimeter=parallelogramPerimeter;whiteSpace=wrap;html=1;fixedSize=1;strokeWidth=2;" vertex="1" parent="1">
          <mxGeometry x="573" y="840.48" width="120" height="40" as="geometry" />
        </mxCell>
        <mxCell id="3u7TNVFmHsjBMgz4t9Cj-188" style="edgeStyle=orthogonalEdgeStyle;rounded=0;orthogonalLoop=1;jettySize=auto;html=1;exitX=0.5;exitY=1;exitDx=0;exitDy=0;entryX=0.75;entryY=1;entryDx=0;entryDy=0;fontFamily=Helvetica;fontSize=12;fontColor=default;" edge="1" parent="1" source="3u7TNVFmHsjBMgz4t9Cj-166" target="3u7TNVFmHsjBMgz4t9Cj-159">
          <mxGeometry relative="1" as="geometry">
            <Array as="points">
              <mxPoint x="194" y="1040" />
              <mxPoint x="-254" y="1040" />
            </Array>
          </mxGeometry>
        </mxCell>
        <mxCell id="3u7TNVFmHsjBMgz4t9Cj-189" value="Start" style="strokeWidth=2;html=1;shape=mxgraph.flowchart.terminator;whiteSpace=wrap;strokeColor=default;align=center;verticalAlign=middle;fontFamily=Helvetica;fontSize=12;fontColor=default;fillColor=default;" vertex="1" parent="1">
          <mxGeometry x="255" y="20" width="72" height="30" as="geometry" />
        </mxCell>
      </root>
    </mxGraphModel>
  </diagram>
</mxfile>
